<?xml version="1.0" standalone="no"?>
<!DOCTYPE svg PUBLIC "-//W3C//DTD SVG 1.1//EN" "http://www.w3.org/Graphics/SVG/1.1/DTD/svg11.dtd" >
<svg xmlns="http://www.w3.org/2000/svg">
<metadata>
Created by FontPrep 20130207 at Sun Jul 19 15:50:28 2015
 By Brian Stephens
Copyright (c) 2012 Admix Designs. All rights reserved.
</metadata>
<defs>
<font id="d1be01f2759d5ccd316ca94e479271a7" horiz-adv-x='1024' >
  <font-face 
    font-family="MavenProLight200-Regular"
    font-weight="400"
    font-stretch="normal"
    units-per-em="2048"
    panose-1="2 0 0 0 0 0 0 0 0 0"
    ascent="1638"
    descent="-410"
    x-height="967"
    cap-height="1270"
    bbox="-152 -389.003 1966 1735"
    underline-thickness="102"
    underline-position="-102"
    unicode-range="U+0020-2122"
  />
<missing-glyph horiz-adv-x="694" 
 />
    <glyph glyph-name=".notdef" horiz-adv-x="694" 
 />
    <glyph glyph-name=".null" horiz-adv-x="0" 
 />
    <glyph glyph-name="nonmarkingreturn" horiz-adv-x="681" 
 />
    <glyph glyph-name="space" unicode=" " horiz-adv-x="583" 
 />
    <glyph glyph-name="exclam" unicode="!" horiz-adv-x="505" 
d="M213 1270h57l-6 -936h-47zM209 0v162h63v-162h-63z" />
    <glyph glyph-name="quotedbl" unicode="&#x22;" horiz-adv-x="628" 
d="M424 877q-6 137 -14 411h67l-16 -411h-37zM164 877l-17 411h68q-8 -274 -14 -411h-37z" />
    <glyph glyph-name="numbersign" unicode="#" horiz-adv-x="1159" 
d="M739 350l66 377h-375l-65 -377h374zM1036 774v-47h-184l-66 -377h187v-47h-195l-45 -266h-47l45 266h-375l-45 -266h-47l45 266h-180v47h188l66 377h-193v47h201l47 277h49l-49 -277h375l47 277h49l-49 -277h176z" />
    <glyph glyph-name="dollar" unicode="$" horiz-adv-x="1083" 
d="M190 957q0 -122 101 -182q74 -43 221 -83v539q-158 -4 -240 -78t-82 -196zM895 333q0 132 -110 198q-56 33 -103 51t-131 41v-586q170 6 257 85t87 211zM551 -238h-39v220q-219 0 -393 79v62q168 -88 393 -88v598q-234 57 -308 133q-73 76 -73 206t97 220t284 96v180h39
v-180q172 -2 338 -74v-59q-164 76 -338 78v-553q237 -58 319 -141t82 -221t-99 -232t-302 -102v-222z" />
    <glyph glyph-name="percent" unicode="%" horiz-adv-x="1523" 
d="M129 932q0 330 260 330t260 -330t-260 -330t-260 330zM390 645q95 0 155 58q59 59 59 229t-59 228t-155 58t-156 -58t-60 -228t60 -229q61 -58 156 -58zM1200 1270l-823 -1270h-53l825 1270h51zM1135 668q260 0 260 -331t-260 -331t-260 331t260 331zM1135 49
q94 1 154 59q61 58 61 229t-60 228t-155 57t-155 -56q-60 -58 -60 -229t60 -229t155 -59z" />
    <glyph glyph-name="ampersand" unicode="&#x26;" horiz-adv-x="1159" 
d="M500 37q211 0 354 180l-410 475q-270 -154 -270 -358q0 -127 92 -212t234 -85zM518 1235q-92 0 -146 -56t-55 -137q0 -109 144 -284q125 72 184 136t59 146q0 80 -46 138q-48 58 -140 57zM119 338q0 227 291 395q-148 176 -148 298t70 190q70 67 188 67t178 -72
q62 -72 62 -172q0 -102 -68 -175t-198 -150l393 -453q66 98 108 226h56q-37 -138 -127 -269l192 -223h-74l-153 178q-162 -197 -391 -196q-166 0 -273 100q-106 100 -106 256z" />
    <glyph glyph-name="quotesingle" unicode="'" horiz-adv-x="444" 
d="M197 877q-6 137 -15 411h66q-8 -274 -15 -411h-36z" />
    <glyph glyph-name="parenleft" unicode="(" horiz-adv-x="542" 
d="M203 556q0 -456 223 -865h-59q-221 416 -221 868t221 868h59q-223 -415 -223 -871z" />
    <glyph glyph-name="parenright" unicode=")" horiz-adv-x="546" 
d="M395 559q0 -448 -223 -868h-59q225 415 225 869t-225 867h59q223 -420 223 -868z" />
    <glyph glyph-name="asterisk" unicode="*" horiz-adv-x="729" 
d="M594 1270l-201 -107l201 -106l-23 -39l-190 121l6 -224h-43l8 224l-192 -121l-23 39l203 106l-203 107l23 39l192 -119l-8 223h43l-6 -223l190 119z" />
    <glyph glyph-name="plus" unicode="+" horiz-adv-x="997" 
d="M846 580v-50h-324v-323h-49v323h-326v50h326v323h49v-323h324z" />
    <glyph glyph-name="comma" unicode="," horiz-adv-x="456" 
d="M233 164h66l-123 -354h-57z" />
    <glyph glyph-name="hyphen" unicode="-" horiz-adv-x="946" 
d="M135 526v56h664v-56h-664z" />
    <glyph glyph-name="period" unicode="." horiz-adv-x="444" 
d="M197 0v162h61v-162h-61z" />
    <glyph glyph-name="slash" unicode="/" horiz-adv-x="729" 
d="M719 1448h53l-754 -1747h-51z" />
    <glyph glyph-name="zero" unicode="0" horiz-adv-x="1177" 
d="M595 31q206 0 308 141t103 463q0 322 -102 461t-309 139q-206 0 -309 -140q-104 -140 -104 -462t104 -462t309 -140zM127 635q-1 329 113 491t355 162t355 -162t113 -492q0 -330 -114 -493q-115 -161 -355 -161t-354 162t-113 493z" />
    <glyph glyph-name="one" unicode="1" horiz-adv-x="757" 
d="M500 1270v-1270h-58v1208l-262 -157v65l256 154h64z" />
    <glyph glyph-name="two" unicode="2" horiz-adv-x="1067" 
d="M940 55v-55h-797v45q702 553 703 893q0 121 -87 207t-267 86t-338 -86v61q160 82 351 82t295 -103t103 -247q1 -351 -665 -883h702z" />
    <glyph glyph-name="three" unicode="3" horiz-adv-x="1003" 
d="M889 328q0 -154 -114 -250q-115 -96 -321 -96t-339 71v58q131 -74 321 -74t293 78q102 78 102 222t-102 223t-303 81h-150v53h150q174 2 263 74t89 200t-91 196t-260 69q-169 0 -288 -62v58q123 61 307 61t286 -88q104 -88 104 -225t-76 -214t-187 -89q129 -14 223 -102
q94 -90 93 -244z" />
    <glyph glyph-name="four" unicode="4" horiz-adv-x="1075" 
d="M745 426v758l-593 -758h593zM801 426h186v-53h-186v-373h-56v373h-659v57q342 436 655 840h60v-844z" />
    <glyph glyph-name="five" unicode="5" horiz-adv-x="1079" 
d="M846 1270v-56h-555q-39 -270 -68 -503q139 49 252 49t181 -18q270 -69 270 -367q0 -307 -286 -376q-71 -17 -151 -17q-219 0 -360 73v60q57 -33 157 -57t201 -23q174 0 278 83q103 83 103 259q0 328 -362 328q-141 0 -311 -60q-21 21 -33 31l80 594h604z" />
    <glyph glyph-name="six" unicode="6" horiz-adv-x="1097" 
d="M557 35q186 0 271 104t85 252t-95 236t-261 88q-225 0 -375 -140q0 -540 375 -540zM542 768q204 0 317 -103q112 -103 112 -277q1 -174 -103 -291q-104 -115 -317 -115t-320 146q-106 146 -106 450t103 463t229 203t218 44q93 0 165 -16v-51q-100 14 -154 14t-108 -9
q-53 -9 -126 -46q-73 -38 -126 -98q-52 -60 -94 -176t-48 -269q154 131 358 131z" />
    <glyph glyph-name="seven" unicode="7" horiz-adv-x="1077" 
d="M133 1270h834v-51l-500 -1219h-64l502 1214h-772v56z" />
    <glyph glyph-name="eight" unicode="8" horiz-adv-x="1081" 
d="M549 662q-177 0 -273 -81t-96 -221t92 -233q92 -92 278 -92q187 0 277 92q91 92 91 232q0 139 -96 221t-273 82zM549 1233q-145 -1 -231 -65t-87 -188q0 -124 83 -195t235 -71q151 0 233 70t82 195t-85 189t-230 65zM973 347q0 -159 -109 -262q-108 -103 -316 -103
t-317 103t-109 262t94 248q93 89 218 97q-106 8 -183 83t-77 209t96 220t278 86t278 -86t96 -220t-76 -209t-182 -83q125 -8 217 -97t92 -248z" />
    <glyph glyph-name="nine" unicode="9" horiz-adv-x="1114" 
d="M532 1235q-186 1 -270 -105t-84 -254t94 -234q94 -87 260 -87q122 0 220 41t157 96q0 543 -377 543zM548 502q-206 0 -317 102t-111 276t103 292q102 116 315 116q214 0 320 -147t107 -451q0 -182 -42 -318q-43 -136 -103 -209t-142 -116t-143 -54t-129 -11t-154 16v51
q72 -14 139 -14t121 9t126 46q73 37 127 97t94 175t46 269q-151 -129 -357 -129z" />
    <glyph glyph-name="colon" unicode=":" horiz-adv-x="491" 
d="M217 772v160h62v-160h-62zM217 33v160h62v-160h-62z" />
    <glyph glyph-name="semicolon" unicode=";" horiz-adv-x="530" 
d="M233 164h64l-123 -354h-57zM225 772v160h64v-160h-64z" />
    <glyph glyph-name="less" unicode="&#x3c;" horiz-adv-x="1112" 
d="M166 559q516 233 774 348v-61l-707 -314l707 -313v-61l-774 350v51z" />
    <glyph glyph-name="equal" unicode="=" horiz-adv-x="1067" 
d="M885 772v-55h-719v55h719zM885 391v-55h-719v55h719z" />
    <glyph glyph-name="greater" unicode="&#x3e;" horiz-adv-x="1101" 
d="M174 907l774 -348v-51l-774 -350v61l705 313l-705 314v61z" />
    <glyph glyph-name="question" unicode="?" horiz-adv-x="815" 
d="M360 0v160h64v-160h-64zM725 977q0 -91 -31 -151t-76 -100l-90 -80q-106 -94 -106 -271v-43h-57v47q0 165 71 246t152 153q80 72 80 203t-94 190t-223 59q-130 0 -240 -59v60q120 57 240 57t234 -54q62 -30 101 -98t39 -159z" />
    <glyph glyph-name="at" unicode="@" horiz-adv-x="1869" 
d="M903 117q94 0 175 41t100 135q18 111 28 180q-232 53 -424 -19q-120 -48 -118 -173q0 -90 72 -127t167 -37zM988 799q-128 0 -220 -31l6 43q102 33 211 33q279 0 279 -240q0 -49 -18 -165q-18 -115 -19 -175q0 -60 39 -106t131 -45q127 1 214 119t87 309q0 293 -190 478
t-468 185q-220 0 -418 -112t-321 -311q-123 -198 -123 -427q0 -291 195 -472t469 -181q201 0 377 86l-9 -35q-170 -82 -374 -82q-287 0 -488 193t-201 493q1 238 131 443t334 321t428 115q281 1 485 -191t204 -499q-1 -199 -93 -334t-231 -135q-100 0 -153 49
q-52 49 -60 119q-23 -84 -109 -127t-191 -43t-190 49q-84 49 -84 167t112 182t276 65q104 0 206 -23l7 92q1 96 -51 144t-180 49z" />
    <glyph glyph-name="A" unicode="A" 
d="M614 1196l-301 -731h605zM1108 0l-170 412h-647l-168 -412h-64q53 123 529 1270h55q215 -514 526 -1270h-61z" />
    <glyph glyph-name="B" unicode="B" horiz-adv-x="1130" 
d="M565 678q160 0 246 70t86 198q0 127 -85 199t-253 72h-360v-539h366zM608 51q164 0 260 75t96 219t-100 212t-260 68h-405v-574h409zM1020 334q0 -158 -110 -246t-306 -88h-463v1270h414q205 0 302 -89t97 -219t-66 -206q-66 -78 -165 -94q115 -10 206 -90t91 -238z" />
    <glyph glyph-name="C" unicode="C" horiz-adv-x="1173" 
d="M180 633q0 -598 539 -598q184 0 364 63v-55q-183 -61 -337 -61t-256 32t-186 105q-85 72 -133 203q-48 132 -48 294q0 432 249 587q140 87 329 87q190 0 382 -69v-56q-184 70 -385 70t-360 -131q-158 -132 -158 -471z" />
    <glyph glyph-name="D" unicode="D" horiz-adv-x="1222" 
d="M197 1217v-1166h313q281 1 416 145t135 438t-135 438t-416 145h-313zM139 1270h375q604 0 604 -635t-604 -635h-375v1270z" />
    <glyph glyph-name="E" unicode="E" horiz-adv-x="1011" 
d="M199 1217v-547h630v-54h-630v-563h714v-53h-772v1270h772v-53h-714z" />
    <glyph glyph-name="F" unicode="F" horiz-adv-x="978" 
d="M141 1270h750v-53h-692v-551h610v-56h-610v-610h-58v1270z" />
    <glyph glyph-name="G" unicode="G" horiz-adv-x="1247" 
d="M657 645h465v-584q-188 -79 -422 -79t-396 136q-85 71 -133 203t-48 312q0 502 365 621q101 34 253 34t349 -69v-56q-197 70 -373 70q-237 0 -387 -138t-150 -462q0 -598 539 -598q174 0 346 59v496h-408v55z" />
    <glyph glyph-name="H" unicode="H" horiz-adv-x="1200" 
d="M989 1270h58v-1270h-58v610h-790v-610h-58v1270h58v-606h790v606z" />
    <glyph glyph-name="I" unicode="I" horiz-adv-x="366" 
d="M141 1270h58v-1270h-58v1270z" />
    <glyph glyph-name="J" unicode="J" horiz-adv-x="784" 
d="M578 1270h57v-932q0 -186 -87 -271q-88 -85 -224 -85t-254 55v59q110 -59 242 -59q266 0 266 305v928z" />
    <glyph glyph-name="K" unicode="K" horiz-adv-x="1069" 
d="M199 4h-58v1266h58v-758l686 758h76l-537 -590l588 -680h-76l-551 641l-186 -207v-430z" />
    <glyph glyph-name="L" unicode="L" horiz-adv-x="946" 
d="M199 53h680v-53h-738v1270h58v-1217z" />
    <glyph glyph-name="M" unicode="M" horiz-adv-x="1427" 
d="M1278 1270v-1270h-57v1174l-512 -730l-510 730v-1174h-58v1270h60l508 -731l510 731h59z" />
    <glyph glyph-name="N" unicode="N" horiz-adv-x="1251" 
d="M1104 0h-62q-281 393 -845 1180v-1180h-58v1270h62l846 -1182v1182h57v-1270z" />
    <glyph glyph-name="O" unicode="O" horiz-adv-x="1417" 
d="M706 35q271 1 398 151t127 450t-127 450t-398 149q-270 0 -398 -150q-128 -149 -128 -449t127 -451q128 -150 399 -150zM707 -18q-584 0 -584 654t582 654q581 0 581 -654t-579 -654z" />
    <glyph glyph-name="P" unicode="P" horiz-adv-x="1040" 
d="M535 1214h-338v-645h335q182 0 279 87q96 86 96 232t-91 236t-281 90zM139 1270h402q203 0 313 -102t109 -279q0 -177 -114 -275t-310 -98h-342v-512h-58v1266z" />
    <glyph glyph-name="Q" unicode="Q" horiz-adv-x="1404" 
d="M706 35q271 1 398 151t127 450t-127 450t-398 149q-270 0 -398 -150q-128 -149 -128 -449t127 -451q128 -150 399 -150zM707 1290q579 0 579 -645t-551 -663q47 -260 334 -273v-51q-342 10 -391 324q-555 14 -555 661t584 647z" />
    <glyph glyph-name="R" unicode="R" horiz-adv-x="1114" 
d="M567 1217h-370v-619h370q174 0 266 83q91 83 91 223t-88 226t-269 87zM197 545v-545h-58v1270h432q197 0 303 -96t106 -262t-93 -253q-94 -88 -221 -104l358 -555h-66l-352 545h-409z" />
    <glyph glyph-name="S" unicode="S" horiz-adv-x="1073" 
d="M184 961q0 -77 42 -131t110 -82t211 -63q143 -36 250 -92q67 -36 109 -105t42 -166q0 -147 -109 -244q-110 -96 -325 -96t-399 79v62q181 -86 379 -86t298 79q99 79 99 206q0 88 -42 148t-115 93t-230 76q-158 43 -226 75t-109 94q-42 62 -42 153q0 143 100 236
q101 93 293 93t365 -76v-57q-179 78 -351 78q-172 -1 -261 -75t-89 -199z" />
    <glyph glyph-name="T" unicode="T" horiz-adv-x="1103" 
d="M43 1270h1010v-53h-475v-1217h-58v1217h-477v53z" />
    <glyph glyph-name="U" unicode="U" horiz-adv-x="1257" 
d="M135 1270h58v-793q1 -219 111 -332t319 -113t319 114q110 112 111 331v793h57v-791q0 -245 -126 -371t-362 -126t-361 127q-126 127 -126 370v791z" />
    <glyph glyph-name="V" unicode="V" horiz-adv-x="1206" 
d="M575 0l-522 1270h62q164 -395 487 -1186l488 1186h61l-522 -1270h-54z" />
    <glyph glyph-name="W" unicode="W" horiz-adv-x="1785" 
d="M897 1176l-379 -1176h-55q-137 422 -408 1270h62q123 -395 372 -1186l381 1186h56l379 -1186l374 1186h62q-72 -223 -408 -1270h-55z" />
    <glyph glyph-name="X" unicode="X" horiz-adv-x="1132" 
d="M600 645l463 -645h-68l-430 596l-430 -596h-67l464 645l-448 625h70l411 -576l414 576h70z" />
    <glyph glyph-name="Y" unicode="Y" horiz-adv-x="1099" 
d="M580 0h-56v532l-473 738h68l434 -682l432 682h70l-475 -738v-532z" />
    <glyph glyph-name="Z" unicode="Z" horiz-adv-x="1157" 
d="M133 0v45l823 1172h-800v53h874v-47l-823 -1172h833v-51h-907z" />
    <glyph glyph-name="bracketleft" unicode="[" horiz-adv-x="608" 
d="M219 1354v-1612h264v-53h-321v1718h321v-53h-264z" />
    <glyph glyph-name="backslash" unicode="\" horiz-adv-x="710" 
d="M4 1448l752 -1747h-51l-754 1747h53z" />
    <glyph glyph-name="bracketright" unicode="]" horiz-adv-x="649" 
d="M403 1354h-264v53h320v-1718h-320v53h264v1612z" />
    <glyph glyph-name="asciicircum" unicode="^" horiz-adv-x="878" 
d="M428 1298l-227 -413h-47l252 461h43l251 -461h-49q-23 43 -101 188q-79 145 -122 225z" />
    <glyph glyph-name="underscore" unicode="_" horiz-adv-x="940" 
d="M0 -49h938v-35h-938v35z" />
    <glyph glyph-name="grave" unicode="`" horiz-adv-x="497" 
d="M119 1405h67l193 -266h-45z" />
    <glyph glyph-name="a" unicode="a" horiz-adv-x="1042" 
d="M848 274v230q-294 55 -511 -10q-73 -23 -117 -77t-44 -131q0 -194 237 -239q52 -10 104 -10q53 0 103 9q228 41 228 228zM496 981q217 0 312 -101t95 -305v-301q0 -74 -30 -128q-89 -160 -355 -160q-126 0 -246 51q-68 29 -110 91t-43 156q0 94 52 162q80 103 280 128
q170 25 395 -19q0 187 -79 279t-273 92q-131 0 -271 -41v55q134 41 273 41z" />
    <glyph glyph-name="b" unicode="b" horiz-adv-x="1058" 
d="M514 37q377 0 377 446t-387 447q-162 0 -309 -62v-592q-1 -86 73 -162t246 -77zM948 489q0 -127 -30 -221t-73 -146q-44 -52 -122 -94t-203 -42q-306 0 -368 215q-12 41 -13 80v1062h56v-417q147 57 317 57t293 -94q143 -107 143 -400z" />
    <glyph glyph-name="c" unicode="c" horiz-adv-x="925" 
d="M178 483q0 -444 400 -444q131 0 272 49v-55q-145 -47 -246 -47t-159 11q-135 26 -230 140q-96 114 -94 346q0 332 205 444q100 56 241 56t283 -49v-55q-141 49 -272 49q-400 -1 -400 -445z" />
    <glyph glyph-name="d" unicode="d" horiz-adv-x="1087" 
d="M182 482q0 -446 375 -445q172 0 246 77t74 162v592q-143 61 -308 62q-387 -2 -387 -448zM125 498q0 136 38 238t105 153q128 96 294 95q167 -1 315 -58v415h57v-1062q0 -69 -30 -124t-68 -89t-110 -57q-124 -41 -281 -14q-52 9 -113 42t-105 85q-43 52 -72 146
q-30 94 -30 230z" />
    <glyph glyph-name="e" unicode="e" horiz-adv-x="1058" 
d="M553 928q-187 0 -277 -118t-94 -306h723v22q-9 179 -96 292q-35 44 -101 77t-155 33zM560 981q106 0 186 -44t121 -102q40 -58 69 -149t28 -158q-1 -66 -1 -75h-781q0 -20 8 -45q10 -193 118 -280t287 -87t302 63v-59q-139 -59 -319 -59t-310 99q-68 51 -106 151t-39 200
q0 100 10 164q10 63 39 134t75 124t126 88q81 35 187 35z" />
    <glyph glyph-name="f" unicode="f" horiz-adv-x="620" 
d="M501 1315q-118 0 -170 -52t-52 -173v-123h311v-49h-311v-918h-56v918h-143v49h143v120q0 79 22 135t49 83q63 61 182 61q58 0 124 -16v-52q-61 17 -99 17z" />
    <glyph glyph-name="g" unicode="g" horiz-adv-x="1048" 
d="M862 696q0 75 -58 146q-72 88 -259 88q-369 0 -369 -441q0 -260 125 -349q101 -72 256 -72t305 69v559zM581 983q83 0 165 -34t115 -87q57 -89 59 -168v-760q0 -324 -420 -323q-127 0 -254 31v53q131 -29 250 -29q210 0 288 75t78 193v146q-152 -68 -309 -68
q-432 0 -432 477q0 217 74 322q35 51 87 97q84 75 299 75z" />
    <glyph glyph-name="h" unicode="h" horiz-adv-x="1069" 
d="M575 983q360 0 361 -375v-608h-57v608q0 317 -310 318q-174 0 -366 -92v-834h-58v1341h58v-452q200 94 372 94z" />
    <glyph glyph-name="i" unicode="i" horiz-adv-x="364" 
d="M147 0v967h58v-967h-58zM145 1151v143h62v-143h-62z" />
    <glyph glyph-name="j" unicode="j" horiz-adv-x="413" 
d="M197 1294h61v-143h-61v143zM199 -121v1088h57v-1008q0 -45 -4 -123q-12 -223 -270 -223v53q155 0 197 101q20 44 20 112z" />
    <glyph glyph-name="k" unicode="k" horiz-adv-x="901" 
d="M201 0h-56v1341h56v-935l534 561h76l-416 -437l471 -530h-75l-433 492l-157 -166v-326z" />
    <glyph glyph-name="l" unicode="l" horiz-adv-x="393" 
d="M221 0h-57v1341h57v-1341z" />
    <glyph glyph-name="m" unicode="m" horiz-adv-x="1720" 
d="M1225 983q344 0 344 -354v-629h-58v629q0 297 -290 297q-195 0 -373 -107q37 -72 37 -190v-629h-56v629q0 297 -292 297q-162 0 -334 -84v-842h-58v874q203 109 395 109t277 -119q197 119 408 119z" />
    <glyph glyph-name="n" unicode="n" horiz-adv-x="1064" 
d="M559 983q365 0 365 -352v-631h-58v631q0 295 -313 295q-178 0 -358 -88v-838h-58v870q203 113 422 113z" />
    <glyph glyph-name="o" unicode="o" horiz-adv-x="1132" 
d="M569 930q-177 0 -287 -102t-110 -350q0 -247 116 -344t281 -97q391 1 391 447t-391 446zM1018 482q0 -146 -40 -248t-109 -154q-130 -96 -302 -95t-301 95q-70 51 -110 153q-41 103 -41 249t41 250t110 156q128 95 303 95t300 -95q69 -52 109 -156t40 -250z" />
    <glyph glyph-name="p" unicode="p" horiz-adv-x="1069" 
d="M504 39q387 -1 387 445t-377 446q-172 0 -246 -77t-73 -163v-592q139 -59 309 -59zM504 983q442 0 442 -499t-442 -498q-158 0 -309 55v-414h-58v1061q0 68 30 124t67 89q38 33 111 57t159 25z" />
    <glyph glyph-name="q" unicode="q" horiz-adv-x="1081" 
d="M553 930q-377 0 -377 -446t387 -445q168 0 309 59v592q0 86 -73 163q-74 77 -246 77zM121 479q0 156 42 262t112 156q125 86 278 86q96 0 169 -25q73 -26 111 -58q37 -32 67 -88t30 -124v-1061h-58v414q-143 -55 -309 -55q-442 -1 -442 493z" />
    <glyph glyph-name="r" unicode="r" horiz-adv-x="624" 
d="M195 0h-58v893q207 86 438 90v-55q-193 -6 -380 -72v-856z" />
    <glyph glyph-name="s" unicode="s" horiz-adv-x="866" 
d="M174 737q0 -86 60 -130t146 -64t174 -45q87 -25 147 -85q61 -60 61 -169t-86 -184q-86 -74 -255 -74t-321 61v59q152 -66 304 -66t227 58q74 56 74 148q-1 92 -61 141t-146 71l-172 44t-147 76q-60 54 -60 158t79 176t221 71q142 0 288 -53v-58q-141 56 -267 56t-196 -52
t-70 -139z" />
    <glyph glyph-name="t" unicode="t" horiz-adv-x="643" 
d="M446 39q68 0 123 18v-55q-74 -16 -129 -16q-244 0 -243 241v688h-144v52h144v272h57v-272h311v-52h-311v-686q-1 -190 192 -190z" />
    <glyph glyph-name="u" unicode="u" horiz-adv-x="1083" 
d="M879 391v576h57v-572q0 -197 -104 -303t-296 -106t-295 105t-104 304v572h58v-576q0 -174 87 -264t254 -90t255 91t88 263z" />
    <glyph glyph-name="v" unicode="v" horiz-adv-x="1007" 
d="M508 74l377 893h61l-411 -967h-56q-41 96 -186 438t-225 529h61z" />
    <glyph glyph-name="w" unicode="w" horiz-adv-x="1546" 
d="M774 879l-295 -879h-53l-350 967h61l316 -883l295 883h51q45 -133 144 -430t153 -453l315 883h62l-351 -967h-55z" />
    <glyph glyph-name="x" unicode="x" horiz-adv-x="976" 
d="M82 0l364 487l-354 480h66l323 -437l324 437h69l-358 -480l367 -487h-68l-334 446q-285 -383 -331 -446h-68z" />
    <glyph glyph-name="y" unicode="y" horiz-adv-x="978" 
d="M207 -387q-47 0 -92 18v54q31 -16 92 -17q154 0 231 211l39 105q-162 397 -395 983h61q59 -152 181 -455t180 -455q115 303 340 910h61q-322 -858 -416 -1106t-282 -248z" />
    <glyph glyph-name="z" unicode="z" horiz-adv-x="919" 
d="M825 49v-49h-716v49l628 866h-610v52h680v-49l-629 -869h647z" />
    <glyph glyph-name="braceleft" unicode="{" horiz-adv-x="610" 
d="M268 764v313q0 152 60 241t186 89v-53q-86 0 -137 -58t-51 -163v-369q0 -119 -133 -215q133 -96 133 -213v-367q0 -105 51 -163t137 -60v-51q-246 0 -246 328v313q0 114 -137 194v39q137 80 137 195z" />
    <glyph glyph-name="bar" unicode="|" horiz-adv-x="528" 
d="M289 -299h-58v1685h58v-1685z" />
    <glyph glyph-name="braceright" unicode="}" horiz-adv-x="614" 
d="M367 336v-313q0 -328 -246 -328v51q86 2 137 61t51 162v367q0 119 135 213q-135 94 -135 215v369q0 106 -52 163t-136 58v53q127 0 186 -89t60 -241v-313q0 -115 137 -195v-39q-137 -80 -137 -194z" />
    <glyph glyph-name="asciitilde" unicode="~" horiz-adv-x="1005" 
d="M690 459q-70 -1 -182 71t-176 74q-123 0 -191 -127q-4 14 -8 43q72 133 195 133q68 1 182 -71t176 -74q114 0 180 127l8 -43q-66 -133 -184 -133z" />
    <glyph glyph-name="exclamdown" unicode="&#xa1;" horiz-adv-x="499" 
d="M270 -301h-57l4 936h47zM272 969v-160h-63v160h63z" />
    <glyph glyph-name="cent" unicode="&#xa2;" horiz-adv-x="929" 
d="M178 683q0 -425 365 -441v882q-365 -16 -365 -441zM584 1126v-886q127 0 264 49v-56q-135 -47 -264 -49v-182h-41v182q-166 8 -283 102q-139 110 -139 395q0 286 131 389q131 104 291 112v170h41v-170q121 0 264 -49v-56q-137 49 -264 49z" />
    <glyph glyph-name="sterling" unicode="&#xa3;" horiz-adv-x="1046" 
d="M667 1243q-169 0 -254 -86t-85 -209v-325h467v-52h-467v-497q74 -2 224 -32t246 -30q95 0 169 25v-57q-74 -25 -171 -25t-259 33q-162 32 -252 32t-195 -34v55q86 31 180 35v495h-178v52h178v323q0 144 100 248t310 104q143 0 287 -69v-58q-131 72 -300 72z" />
    <glyph glyph-name="yen" unicode="&#xa5;" horiz-adv-x="1101" 
d="M926 594v-47h-342v-228h342v-47h-342v-272h-56v272h-340v47h340v228h-340v47h316l-449 676h68l434 -652l432 652h70l-451 -676h318z" />
    <glyph glyph-name="section" unicode="&#xa7;" horiz-adv-x="1034" 
d="M864 638q0 66 -56 113q-56 46 -214 94t-191 62q-104 -6 -162 -52q-59 -46 -59 -118q0 -71 58 -113t206 -86q150 -44 207 -71q104 12 158 58q53 47 53 113zM233 1106q0 106 84 168q83 62 237 61q154 0 296 -47v-57q-140 51 -274 51t-212 -45t-77 -122q-1 -77 69 -120
t180 -73t148 -44q39 -13 88 -38q145 -74 148 -207q0 -76 -58 -131t-168 -72q111 -70 111 -175t-89 -174q-90 -69 -268 -69t-325 58v57q145 -59 307 -59t237 58t75 137t-68 125q-70 46 -175 74t-182 55q-77 26 -114 62q-76 73 -76 158t60 139t167 66q-121 58 -121 164z" />
    <glyph glyph-name="dieresis" unicode="&#xa8;" horiz-adv-x="653" 
d="M442 1139v157h62v-157h-62zM135 1139v157h62v-157h-62z" />
    <glyph glyph-name="copyright" unicode="&#xa9;" horiz-adv-x="1507" 
d="M751 1257q-257 0 -441 -183t-185 -440q1 -256 185 -440t441 -184t440 184t183 440q0 257 -183 440t-440 183zM751 1286q269 0 460 -191t191 -461t-190 -460q-192 -190 -462 -190t-462 190t-192 460t193 460q193 192 462 192zM444 633q0 -362 326 -363q106 0 219 39v-33
q-97 -36 -239 -36t-241 91t-99 303t99 304t257 92q100 0 223 -41v-33q-123 41 -221 41q-144 1 -234 -83t-90 -281z" />
    <glyph glyph-name="ordfeminine" unicode="&#xaa;" horiz-adv-x="702" 
d="M526 971v127q-59 10 -110 14h-56q-143 0 -189 -66q-22 -30 -21 -71q0 -78 60 -108q60 -29 130 -29t128 28t58 105zM526 1126q0 207 -183 207q-93 0 -165 -22v30q72 23 174 23q208 0 207 -225v-170q0 -66 -43 -104q-63 -56 -156 -56q-92 1 -144 23q-101 44 -99 143
q-1 168 277 168q62 0 132 -17z" />
    <glyph glyph-name="guillemotleft" unicode="&#xab;" horiz-adv-x="1073" 
d="M954 918l-385 -396l385 -393h-75l-381 393l381 396h75zM543 918l-387 -396l387 -393h-78l-379 393l379 396h78z" />
    <glyph glyph-name="logicalnot" unicode="&#xac;" horiz-adv-x="1101" 
d="M160 606h792v-268h-51v215h-741v53z" />
    <glyph glyph-name="registered" unicode="&#xae;" horiz-adv-x="1507" 
d="M547 987v-375h244q113 0 167 50t56 138q0 87 -56 137t-167 50h-244zM793 1018q121 0 189 -56t67 -160q0 -102 -65 -158t-157 -60l244 -332h-41l-239 328h-244v-328h-35v766h281zM751 1257q-257 0 -441 -183t-185 -440q1 -256 185 -440t441 -184t440 184t183 440
q0 257 -183 440t-440 183zM751 1286q269 0 460 -191t191 -461t-190 -460q-192 -190 -462 -190t-462 190t-192 460t193 460q193 192 462 192z" />
    <glyph glyph-name="macron" unicode="&#xaf;" horiz-adv-x="714" 
d="M141 1165v43h422v-43h-422z" />
    <glyph glyph-name="degree" unicode="&#xb0;" horiz-adv-x="727" 
d="M362 924q88 0 145 56q56 56 56 145t-56 145q-57 56 -145 57q-88 0 -144 -56q-56 -55 -56 -145t56 -146t144 -56zM362 1356q100 0 165 -65t65 -167t-65 -167t-165 -65t-164 66q-64 64 -65 166q1 102 65 167t164 65z" />
    <glyph glyph-name="plusminus" unicode="&#xb1;" horiz-adv-x="1026" 
d="M158 23v49h698v-49h-698zM532 594h324v-47h-324v-326h-49v326h-325v47h325v326h49v-326z" />
    <glyph glyph-name="acute" unicode="&#xb4;" horiz-adv-x="503" 
d="M322 1405h67l-215 -266h-47z" />
    <glyph glyph-name="mu" unicode="&#xb5;" horiz-adv-x="1087" 
d="M147 -389v1356h58v-629q0 -295 313 -295q178 0 359 86v838h57v-871q-203 -109 -422 -108q-127 0 -208 47t-99 131v-555h-58z" />
    <glyph glyph-name="paragraph" unicode="&#xb6;" horiz-adv-x="825" 
d="M539 1335h114v-1274h-53v525h-61q-213 0 -324 94t-111 280t111 281q111 94 324 94z" />
    <glyph glyph-name="periodcentered" unicode="&#xb7;" horiz-adv-x="440" 
d="M250 649v-162h-62v162h62z" />
    <glyph glyph-name="cedilla" unicode="&#xb8;" horiz-adv-x="591" 
d="M199 -270h-72l219 266h45z" />
    <glyph glyph-name="ordmasculine" unicode="&#xba;" horiz-adv-x="778" 
d="M390 840q220 0 220 248t-220 247q-220 1 -220 -247t220 -248zM137 1087q0 279 253 279t253 -279q0 -156 -73 -217t-179 -61t-180 61t-74 217z" />
    <glyph glyph-name="guillemotright" unicode="&#xbb;" horiz-adv-x="1062" 
d="M565 522l-381 -393h-75l385 393l-385 396h75q165 -169 381 -396zM979 522l-381 -393h-78l387 393q-43 43 -177 181t-210 215h78q216 -227 381 -396z" />
    <glyph glyph-name="questiondown" unicode="&#xbf;" horiz-adv-x="813" 
d="M469 967v-160h-61v160h61zM410 635h57v-47q0 -100 -32 -174t-77 -116t-89 -80q-107 -92 -107 -224q0 -130 86 -192t222 -62t251 57v-59q-121 -57 -245 -57t-231 53q-62 31 -102 98q-39 68 -39 158q0 152 109 251q45 40 89 80q44 41 76 109t32 162v43z" />
    <glyph glyph-name="Agrave" unicode="&#xc0;" 
d="M426 1694h66l194 -267h-47zM614 1196l-301 -731h605zM1108 0l-170 412h-647l-168 -412h-64q53 123 529 1270h55q215 -514 526 -1270h-61z" />
    <glyph glyph-name="Aacute" unicode="&#xc1;" 
d="M748 1694h67l-215 -267h-45zM614 1196l-301 -731h605zM1108 0l-170 412h-647l-168 -412h-64q53 123 529 1270h55q215 -514 526 -1270h-61z" />
    <glyph glyph-name="Acircumflex" unicode="&#xc2;" 
d="M614 1659q-40 -48 -188 -232h-55l217 267h53l219 -267h-55zM614 1196l-301 -731h605zM1108 0l-170 412h-647l-168 -412h-64q53 123 529 1270h55q215 -514 526 -1270h-61z" />
    <glyph glyph-name="Atilde" unicode="&#xc3;" 
d="M496 1565q43 0 126 -46t123 -46q61 0 115 81l6 -41q-51 -92 -123 -92q-45 0 -127 46t-124 46q-68 1 -115 -75l-6 41q53 86 125 86zM614 1196l-301 -731h605zM1108 0l-170 412h-647l-168 -412h-64q53 123 529 1270h55q215 -514 526 -1270h-61z" />
    <glyph glyph-name="Adieresis" unicode="&#xc4;" 
d="M737 1427v158h62v-158h-62zM432 1427v158h62v-158h-62zM614 1196l-301 -731h605zM1108 0l-170 412h-647l-168 -412h-64q53 123 529 1270h55q215 -514 526 -1270h-61z" />
    <glyph glyph-name="Aring" unicode="&#xc5;" 
d="M615 1735q157 0 157 -164t-157 -164t-156 164q-1 164 156 164zM735 1571q0 131 -120 131q-119 0 -119 -131t120 -131t119 131zM614 1196l-301 -731h605zM1108 0l-170 412h-647l-168 -412h-64q53 123 529 1270h55q215 -514 526 -1270h-61z" />
    <glyph glyph-name="AE" unicode="&#xc6;" horiz-adv-x="1751" 
d="M850 463v751h-23l-495 -751h518zM907 1217v-547h625v-54h-625v-563h707v-53h-764v408h-553l-266 -408h-66l836 1270h813v-53h-707z" />
    <glyph glyph-name="Ccedilla" unicode="&#xc7;" horiz-adv-x="1173" 
d="M180 633q0 -598 539 -598q184 0 364 63v-55q-186 -59 -346 -61l-186 -252h-68l207 252q-239 8 -393 143q-174 153 -174 508q0 415 249 570q140 87 329 87q190 0 382 -69v-56q-184 70 -385 70t-360 -131q-158 -132 -158 -471z" />
    <glyph glyph-name="Egrave" unicode="&#xc8;" horiz-adv-x="1011" 
d="M330 1696h65l195 -269h-47zM199 1217v-547h630v-54h-630v-563h714v-53h-772v1270h772v-53h-714z" />
    <glyph glyph-name="Eacute" unicode="&#xc9;" horiz-adv-x="1011" 
d="M645 1696h68l-215 -269h-47zM199 1217v-547h630v-54h-630v-563h714v-53h-772v1270h772v-53h-714z" />
    <glyph glyph-name="Ecircumflex" unicode="&#xca;" horiz-adv-x="1011" 
d="M551 1694l219 -267h-57l-189 232q-162 -197 -190 -232h-53l217 267h53zM911 1270v-53h-714v-547h632v-54h-632v-565h714v-51h-772v1270h772z" />
    <glyph glyph-name="Edieresis" unicode="&#xcb;" horiz-adv-x="1011" 
d="M653 1427v158h62v-158h-62zM348 1427v158h62v-158h-62zM199 1217v-547h630v-54h-630v-563h714v-53h-772v1270h772v-53h-714z" />
    <glyph glyph-name="Igrave" unicode="&#xcc;" horiz-adv-x="366" 
d="M-16 1696h65l193 -269h-45zM141 1270h58v-1270h-58v1270z" />
    <glyph glyph-name="Iacute" unicode="&#xcd;" horiz-adv-x="366" 
d="M291 1696h67l-215 -269h-47zM141 1270h58v-1270h-58v1270z" />
    <glyph glyph-name="Icircumflex" unicode="&#xce;" horiz-adv-x="366" 
d="M195 1694l219 -267h-56l-190 232l-186 -232h-56l215 267h54zM139 1270h58v-1270h-58v1270z" />
    <glyph glyph-name="Idieresis" unicode="&#xcf;" horiz-adv-x="366" 
d="M293 1427v158h61v-158h-61zM-14 1427v158h61v-158h-61zM141 1270h58v-1270h-58v1270z" />
    <glyph glyph-name="Eth" unicode="&#xd0;" horiz-adv-x="1333" 
d="M307 1217v-560h420v-47h-420v-559h311q281 1 416 145t135 438t-135 438t-416 145h-311zM90 610v47h160v613h373q604 0 604 -635t-604 -635h-373v610h-160z" />
    <glyph glyph-name="Ntilde" unicode="&#xd1;" horiz-adv-x="1251" 
d="M750 1421q-45 0 -127 46t-125 46q-68 1 -115 -75l-6 41q53 86 125 86q43 0 126 -46t124 -46q68 0 112 81l8 -41q-53 -92 -122 -92zM1104 0h-62q-281 393 -845 1180v-1180h-58v1270h62l846 -1182v1182h57v-1270z" />
    <glyph glyph-name="Ograve" unicode="&#xd2;" horiz-adv-x="1417" 
d="M506 1696h65l193 -269h-45zM706 35q271 1 398 151t127 450t-127 450t-398 149q-270 0 -398 -150q-128 -149 -128 -449t127 -451q128 -150 399 -150zM707 -18q-584 0 -584 654t582 654q581 0 581 -654t-579 -654z" />
    <glyph glyph-name="Oacute" unicode="&#xd3;" horiz-adv-x="1417" 
d="M825 1696h68l-215 -269h-47zM706 35q271 1 398 151t127 450t-127 450t-398 149q-270 0 -398 -150q-128 -149 -128 -449t127 -451q128 -150 399 -150zM707 -18q-584 0 -584 654t582 654q581 0 581 -654t-579 -654z" />
    <glyph glyph-name="Ocircumflex" unicode="&#xd4;" horiz-adv-x="1417" 
d="M702 1659q-40 -48 -188 -232h-55l217 267h53l219 -267h-55zM705 -18q-582 0 -582 653t582 653t582 -653t-582 -653zM705 35q272 -1 398 149t126 451t-126 451t-398 149q-273 0 -399 -150q-126 -151 -126 -451t126 -450q127 -149 399 -149z" />
    <glyph glyph-name="Otilde" unicode="&#xd5;" horiz-adv-x="1417" 
d="M578 1565q45 0 128 -46t123 -46q61 0 113 81l6 -41q-51 -92 -123 -92q-45 0 -127 46t-125 46q-65 1 -114 -75l-6 41q53 86 125 86zM705 -18q-582 0 -582 653t582 653t582 -653t-582 -653zM705 35q272 -1 398 149t126 451t-126 451t-398 149q-273 0 -399 -150
q-126 -151 -126 -451t126 -450q127 -149 399 -149z" />
    <glyph glyph-name="Odieresis" unicode="&#xd6;" horiz-adv-x="1417" 
d="M827 1427v158h62v-158h-62zM520 1427v158h62v-158h-62zM706 35q271 1 398 151t127 450t-127 450t-398 149q-270 0 -398 -150q-128 -149 -128 -449t127 -451q128 -150 399 -150zM707 -18q-584 0 -584 654t582 654q581 0 581 -654t-579 -654z" />
    <glyph glyph-name="Oslash" unicode="&#xd8;" horiz-adv-x="1417" 
d="M707 35q270 1 397 151t127 458t-146 456l-731 -965q127 -100 353 -100zM707 1235q-271 1 -399 -149t-128 -460t144 -456l729 965q-129 100 -346 100zM1286 637q0 -657 -579 -657q-246 0 -385 114l-74 -94h-60l99 129q-164 158 -164 508q0 653 584 653q238 0 380 -114
l74 94h62l-101 -127q164 -158 164 -506z" />
    <glyph glyph-name="Ugrave" unicode="&#xd9;" horiz-adv-x="1257" 
d="M444 1694h66l195 -267h-48zM135 1270h58v-793q1 -219 111 -332t319 -113t319 114q110 112 111 331v793h57v-791q0 -245 -126 -371t-362 -126t-361 127q-126 127 -126 370v791z" />
    <glyph glyph-name="Uacute" unicode="&#xda;" horiz-adv-x="1257" 
d="M745 1694h70q-203 -250 -217 -267h-45zM135 1270h58v-793q1 -219 111 -332t319 -113t319 114q110 112 111 331v793h57v-791q0 -245 -126 -371t-362 -126t-361 127q-126 127 -126 370v791z" />
    <glyph glyph-name="Ucircumflex" unicode="&#xdb;" horiz-adv-x="1257" 
d="M649 1694l219 -267h-57l-188 232q-162 -197 -191 -232h-53l217 267h53zM135 1270h58v-793q1 -219 111 -332t319 -113t319 114q110 112 111 331v793h57v-791q0 -245 -126 -371t-362 -126t-361 127q-126 127 -126 370v791z" />
    <glyph glyph-name="Udieresis" unicode="&#xdc;" horiz-adv-x="1257" 
d="M745 1427v158h62v-158h-62zM438 1427v158h62v-158h-62zM135 1270h58v-793q1 -219 111 -332t319 -113t319 114q110 112 111 331v793h57v-791q0 -245 -126 -371t-362 -126t-361 127q-126 127 -126 370v791z" />
    <glyph glyph-name="Thorn" unicode="&#xde;" horiz-adv-x="1032" 
d="M510 997h-313v-647h311q182 0 278 87t96 233t-90 237q-92 90 -282 90zM139 1270h58v-219h319q204 1 314 -101t110 -280t-115 -276t-311 -97h-317v-293h-58v1266z" />
    <glyph glyph-name="germandbls" unicode="&#xdf;" horiz-adv-x="1073" 
d="M977 350q0 -188 -133 -269t-406 -81v49q240 0 363 71t123 230q0 305 -473 305v52q406 0 405 278q0 272 -319 272q-342 0 -342 -368v-889h-58v891q1 199 99 309t294 111q196 0 290 -88q93 -87 93 -225q1 -138 -77 -220t-189 -94q131 -8 231 -94t99 -240z" />
    <glyph glyph-name="agrave" unicode="&#xe0;" horiz-adv-x="1017" 
d="M338 1405h65l195 -268h-47zM848 274v230q-294 55 -511 -10q-73 -23 -117 -77t-44 -131q0 -194 237 -239q52 -10 104 -10q53 0 103 9q228 41 228 228zM496 981q217 0 312 -101t95 -305v-301q0 -74 -30 -128q-89 -160 -355 -160q-126 0 -246 51q-68 29 -110 91t-43 156
q0 94 52 162q80 103 280 128q170 25 395 -19q0 187 -79 279t-273 92q-131 0 -271 -41v55q134 41 273 41z" />
    <glyph glyph-name="aacute" unicode="&#xe1;" horiz-adv-x="1017" 
d="M649 1405h68l-215 -268h-45zM848 274v230q-294 55 -511 -10q-73 -23 -117 -77t-44 -131q0 -194 237 -239q52 -10 104 -10q53 0 103 9q228 41 228 228zM496 981q217 0 312 -101t95 -305v-301q0 -74 -30 -128q-89 -160 -355 -160q-126 0 -246 51q-68 29 -110 91t-43 156
q0 94 52 162q80 103 280 128q170 25 395 -19q0 187 -79 279t-273 92q-131 0 -271 -41v55q134 41 273 41z" />
    <glyph glyph-name="acircumflex" unicode="&#xe2;" horiz-adv-x="1017" 
d="M549 1405q12 -16 219 -268h-57q-173 210 -189 231l-190 -231h-56q207 252 220 268h53zM848 274v230q-294 55 -511 -10q-73 -23 -117 -77t-44 -131q0 -194 237 -239q52 -10 104 -10q53 0 103 9q228 41 228 228zM496 981q217 0 312 -101t95 -305v-301q0 -74 -30 -128
q-89 -160 -355 -160q-126 0 -246 51q-68 29 -110 91t-43 156q0 94 52 162q80 103 280 128q170 25 395 -19q0 187 -79 279t-273 92q-131 0 -271 -41v55q134 41 273 41z" />
    <glyph glyph-name="atilde" unicode="&#xe3;" horiz-adv-x="1017" 
d="M401 1270q43 0 126 -47t124 -47q63 0 115 81l6 -38q-49 -92 -123 -93q-45 0 -127 46t-116 46t-68 -20q-34 -22 -55 -57l-7 43q55 86 125 86zM848 274v230q-294 55 -511 -10q-73 -23 -117 -77t-44 -131q0 -194 237 -239q52 -10 104 -10q53 0 103 9q228 41 228 228z
M496 981q217 0 312 -101t95 -305v-301q0 -74 -30 -128q-89 -160 -355 -160q-126 0 -246 51q-68 29 -110 91t-43 156q0 94 52 162q80 103 280 128q170 25 395 -19q0 187 -79 279t-273 92q-131 0 -271 -41v55q134 41 273 41z" />
    <glyph glyph-name="adieresis" unicode="&#xe4;" horiz-adv-x="1017" 
d="M645 1137v157h62v-157h-62zM340 1137v157h61v-157h-61zM848 274v230q-294 55 -511 -10q-73 -23 -117 -77t-44 -131q0 -194 237 -239q52 -10 104 -10q53 0 103 9q228 41 228 228zM496 981q217 0 312 -101t95 -305v-301q0 -74 -30 -128q-89 -160 -355 -160q-126 0 -246 51
q-68 29 -110 91t-43 156q0 94 52 162q80 103 280 128q170 25 395 -19q0 187 -79 279t-273 92q-131 0 -271 -41v55q134 41 273 41z" />
    <glyph glyph-name="aring" unicode="&#xe5;" horiz-adv-x="1017" 
d="M518 1446q76 0 117 -42t41 -122t-41 -122t-117 -42q-156 0 -156 164t156 164zM518 1413q-121 0 -121 -131t121 -131t121 131t-121 131zM848 274v230q-294 55 -511 -10q-73 -23 -117 -77t-44 -131q0 -194 237 -239q52 -10 104 -10q53 0 103 9q228 41 228 228zM496 981
q217 0 312 -101t95 -305v-301q0 -74 -30 -128q-89 -160 -355 -160q-126 0 -246 51q-68 29 -110 91t-43 156q0 94 52 162q80 103 280 128q170 25 395 -19q0 187 -79 279t-273 92q-131 0 -271 -41v55q134 41 273 41z" />
    <glyph glyph-name="ae" unicode="&#xe6;" horiz-adv-x="1792" 
d="M1268 928q-186 0 -274 -117t-93 -307h723v20q-9 187 -96 294q-36 44 -104 77t-156 33zM846 274v230q-272 51 -461 5q-61 -15 -104 -40t-75 -74t-32 -117q0 -186 238 -231q53 -10 133 -10t178 42q55 23 89 73t34 122zM901 453q0 -213 114 -313t294 -99q180 0 307 63v-59
q-143 -59 -318 -59q-332 0 -413 282q-16 -53 -27 -75q-10 -63 -50 -109q-87 -98 -292 -98q-122 0 -243 51q-69 29 -111 91t-43 152q0 235 304 291q164 29 423 -16q0 187 -80 279t-274 92q-135 0 -269 -41v55q131 41 293 41q317 0 363 -297q82 297 393 297q110 0 190 -43
t121 -99q41 -57 71 -145t29 -196v-23l-2 -22h-780z" />
    <glyph glyph-name="ccedilla" unicode="&#xe7;" horiz-adv-x="925" 
d="M578 928q-400 0 -400 -444t400 -445q131 0 272 49v-55q-123 -41 -250 -47l-184 -256h-68l205 256q-168 4 -290 98q-142 108 -142 399q0 332 205 444q100 56 241 56t283 -49v-55q-141 49 -272 49z" />
    <glyph glyph-name="egrave" unicode="&#xe8;" horiz-adv-x="1058" 
d="M369 1405h65l195 -268h-47zM553 928q-187 0 -277 -118t-94 -306h723v22q-9 179 -96 292q-35 44 -101 77t-155 33zM560 981q106 0 186 -44t121 -102q40 -58 69 -149t28 -158q-1 -66 -1 -75h-781q0 -20 8 -45q10 -193 118 -280t287 -87t302 63v-59q-139 -59 -319 -59
t-310 99q-68 51 -106 151t-39 200q0 100 10 164q10 63 39 134t75 124t126 88q81 35 187 35z" />
    <glyph glyph-name="eacute" unicode="&#xe9;" horiz-adv-x="1058" 
d="M657 1405h68l-215 -268h-47q16 24 194 268zM553 928q-187 0 -277 -118t-94 -306h723v22q-9 179 -96 292q-35 44 -101 77t-155 33zM560 981q106 0 186 -44t121 -102q40 -58 69 -149t28 -158q-1 -66 -1 -75h-781q0 -20 8 -45q10 -193 118 -280t287 -87t302 63v-59
q-139 -59 -319 -59t-310 99q-68 51 -106 151t-39 200q0 100 10 164q10 63 39 134t75 124t126 88q81 35 187 35z" />
    <glyph glyph-name="ecircumflex" unicode="&#xea;" horiz-adv-x="1058" 
d="M563 1405q12 -16 219 -268h-57q-154 188 -188 231l-191 -231h-55q207 252 219 268h53zM553 928q-187 0 -277 -118t-94 -306h723v22q-9 179 -96 292q-35 44 -101 77t-155 33zM560 981q106 0 186 -44t121 -102q40 -58 69 -149t28 -158q-1 -66 -1 -75h-781q0 -20 8 -45
q10 -193 118 -280t287 -87t302 63v-59q-139 -59 -319 -59t-310 99q-68 51 -106 151t-39 200q0 100 10 164q10 63 39 134t75 124t126 88q81 35 187 35z" />
    <glyph glyph-name="edieresis" unicode="&#xeb;" horiz-adv-x="1058" 
d="M662 1137v157h61v-157h-61zM356 1137v157h62v-157h-62zM553 928q-187 0 -277 -118t-94 -306h723v22q-9 179 -96 292q-35 44 -101 77t-155 33zM560 981q106 0 186 -44t121 -102q40 -58 69 -149t28 -158q-1 -66 -1 -75h-781q0 -20 8 -45q10 -193 118 -280t287 -87t302 63
v-59q-139 -59 -319 -59t-310 99q-68 51 -106 151t-39 200q0 100 10 164q10 63 39 134t75 124t126 88q81 35 187 35z" />
    <glyph glyph-name="igrave" unicode="&#xec;" horiz-adv-x="364" 
d="M-10 1405h63q178 -244 195 -268h-47zM147 0v967h58v-967h-58z" />
    <glyph glyph-name="iacute" unicode="&#xed;" horiz-adv-x="364" 
d="M305 1405h70l-215 -268h-47zM147 0v967h58v-967h-58z" />
    <glyph glyph-name="icircumflex" unicode="&#xee;" horiz-adv-x="364" 
d="M-66 1137l216 268h53q207 -252 219 -268h-55l-191 231q-63 -76 -186 -231h-56zM147 0v967h58v-967h-58z" />
    <glyph glyph-name="idieresis" unicode="&#xef;" horiz-adv-x="364" 
d="M299 1137v157h61v-157h-61zM-4 1137v157h59v-157h-59zM147 0v967h58v-967h-58z" />
    <glyph glyph-name="eth" unicode="&#xf0;" horiz-adv-x="1112" 
d="M532 715q-166 0 -260 -88q-94 -87 -94 -235t84 -252t265 -105t281 121t101 415q-35 51 -147 97t-230 47zM965 580q-1 -306 -107 -452t-320 -146t-315 116q-102 116 -102 290q0 175 110 278q111 102 319 102t355 -131q-10 346 -192 493q-176 -98 -264 -149l-23 41l244 135
q-113 78 -269 78q-18 0 -59 -4v55q16 2 53 2h35q160 0 297 -98l195 110q10 -16 20 -38q-118 -69 -176 -101q199 -176 199 -581z" />
    <glyph glyph-name="ntilde" unicode="&#xf1;" horiz-adv-x="1064" 
d="M393 1270q45 0 128 -47t124 -47q66 0 113 81l8 -38q-51 -92 -123 -93q-45 0 -128 46t-116 46t-68 -20q-35 -22 -55 -57q-4 29 -8 43q59 86 125 86zM557 981q365 0 365 -352v-629h-56v629q0 297 -313 297q-178 0 -358 -88v-838h-58v870q207 111 420 111z" />
    <glyph glyph-name="ograve" unicode="&#xf2;" horiz-adv-x="1132" 
d="M387 1405h66l194 -266h-47zM569 930q-177 0 -287 -102t-110 -350q0 -247 116 -344t281 -97q391 1 391 447t-391 446zM1018 482q0 -146 -40 -248t-109 -154q-130 -96 -302 -95t-301 95q-70 51 -110 153q-41 103 -41 249t41 250t110 156q128 95 303 95t300 -95
q69 -52 109 -156t40 -250z" />
    <glyph glyph-name="oacute" unicode="&#xf3;" horiz-adv-x="1132" 
d="M694 1405h68l-215 -266h-47zM569 930q-177 0 -287 -102t-110 -350q0 -247 116 -344t281 -97q391 1 391 447t-391 446zM1018 482q0 -146 -40 -248t-109 -154q-130 -96 -302 -95t-301 95q-70 51 -110 153q-41 103 -41 249t41 250t110 156q128 95 303 95t300 -95
q69 -52 109 -156t40 -250z" />
    <glyph glyph-name="ocircumflex" unicode="&#xf4;" horiz-adv-x="1132" 
d="M592 1405q12 -16 219 -268h-57q-90 113 -189 231l-190 -231h-53l217 268h53zM567 37q393 1 393 447t-393 446q-175 0 -285 -102t-110 -346q0 -243 110 -344t285 -101zM576 981q162 0 292 -94q70 -51 110 -155t40 -250t-40 -248t-110 -154q-132 -96 -303 -95
q-172 1 -301 95q-70 51 -109 153q-40 103 -40 235q1 436 325 501q60 12 136 12z" />
    <glyph glyph-name="otilde" unicode="&#xf5;" horiz-adv-x="1132" 
d="M442 1270q43 0 126 -47t124 -47q66 0 113 81l8 -38q-51 -92 -123 -93q-45 0 -127 46t-116 46q-35 0 -69 -20q-34 -22 -54 -57l-7 43q55 86 125 86zM567 37q393 1 393 447t-393 446q-175 0 -285 -102t-110 -346q0 -243 110 -344t285 -101zM576 981q162 0 292 -94
q70 -51 110 -155t40 -250t-40 -248t-110 -154q-132 -96 -303 -95q-172 1 -301 95q-70 51 -109 153q-40 103 -40 235q1 436 325 501q60 12 136 12z" />
    <glyph glyph-name="odieresis" unicode="&#xf6;" horiz-adv-x="1132" 
d="M688 1139v157h62v-157h-62zM383 1139v157h61v-157h-61zM569 930q-177 0 -287 -102t-110 -350q0 -247 116 -344t281 -97q391 1 391 447t-391 446zM1018 482q0 -146 -40 -248t-109 -154q-130 -96 -302 -95t-301 95q-70 51 -110 153q-41 103 -41 249t41 250t110 156
q128 95 303 95t300 -95q69 -52 109 -156t40 -250z" />
    <glyph glyph-name="oslash" unicode="&#xf8;" horiz-adv-x="1140" 
d="M963 472q0 230 -105 345l-549 -702q96 -78 265 -78t279 102q110 103 110 333zM174 485q0 -221 102 -333l549 700q-96 78 -258 78q-393 -1 -393 -445zM117 485q0 498 470 498q160 0 275 -88l56 72h61l-84 -105q125 -125 125 -377q0 -499 -472 -499q-163 0 -272 88l-59 -74
h-61l84 106q-123 129 -123 379z" />
    <glyph glyph-name="ugrave" unicode="&#xf9;" horiz-adv-x="1083" 
d="M354 1405h66l194 -268h-47zM879 391v576h57v-572q0 -197 -104 -303t-296 -106t-295 105t-104 304v572h58v-576q0 -174 87 -264t254 -90t255 91t88 263z" />
    <glyph glyph-name="uacute" unicode="&#xfa;" horiz-adv-x="1083" 
d="M649 1405h68l-215 -268h-47q16 24 194 268zM879 391v576h57v-572q0 -197 -104 -303t-296 -106t-295 105t-104 304v572h58v-576q0 -174 87 -264t254 -90t255 91t88 263z" />
    <glyph glyph-name="ucircumflex" unicode="&#xfb;" horiz-adv-x="1083" 
d="M563 1405q12 -16 219 -268h-57l-188 231l-191 -231h-55l219 268h53zM879 391v576h57v-572q0 -197 -104 -303t-296 -106t-295 105t-104 304v572h58v-576q0 -174 87 -264t254 -90t255 91t88 263z" />
    <glyph glyph-name="udieresis" unicode="&#xfc;" horiz-adv-x="1083" 
d="M657 1137v157h64v-157h-64zM352 1137v157h62v-157h-62zM879 391v576h57v-572q0 -197 -104 -303t-296 -106t-295 105t-104 304v572h58v-576q0 -174 87 -264t254 -90t255 91t88 263z" />
    <glyph glyph-name="thorn" unicode="&#xfe;" horiz-adv-x="1048" 
d="M504 43q387 0 387 440t-387 441q-168 0 -309 -60v-760q147 -61 309 -61zM504 979q444 0 444 -496q0 -288 -143 -399q-128 -96 -295 -95q-168 1 -315 58v-420h-56v1712h56v-417q147 57 309 57z" />
    <glyph glyph-name="ydieresis" unicode="&#xff;" horiz-adv-x="978" 
d="M621 1137v157h61v-157h-61zM315 1137v157h62v-157h-62zM207 -387q-47 0 -92 18v54q31 -16 92 -17q154 0 231 211l39 105q-162 397 -395 983h61q59 -152 181 -455t180 -455q115 303 340 910h61q-322 -858 -416 -1106t-282 -248z" />
    <glyph glyph-name="circumflex" unicode="&#x2c6;" horiz-adv-x="724" 
d="M399 1405q12 -16 219 -268h-57q-154 187 -188 231l-191 -231h-55l219 268h53z" />
    <glyph glyph-name="caron" unicode="&#x2c7;" horiz-adv-x="745" 
d="M373 1174l188 231h57q-207 -252 -219 -268h-53l-219 268h55z" />
    <glyph glyph-name="dotaccent" unicode="&#x2d9;" horiz-adv-x="417" 
d="M166 1139v157h63v-157h-63z" />
    <glyph glyph-name="ring" unicode="&#x2da;" horiz-adv-x="643" 
d="M312 1153q120 0 120 130t-120 130t-120 -130t120 -130zM312 1446q157 0 157 -164t-158 -164q-75 0 -115 43t-40 123q-1 162 156 162z" />
    <glyph glyph-name="tilde" unicode="&#x2dc;" horiz-adv-x="788" 
d="M272 1270q45 0 128 -47t124 -47q63 0 113 81l6 -38q-49 -92 -123 -93q-45 0 -127 46t-135 46t-104 -77l-7 43q55 86 125 86z" />
    <glyph glyph-name="endash" unicode="&#x2013;" horiz-adv-x="1271" 
d="M127 522v49h1006v-49h-1006z" />
    <glyph glyph-name="emdash" unicode="&#x2014;" horiz-adv-x="1882" 
d="M135 522v53h1594v-53h-1594z" />
    <glyph glyph-name="quoteleft" unicode="&#x2018;" horiz-adv-x="413" 
d="M164 1290l117 -354h-58l-123 354h64z" />
    <glyph glyph-name="quoteright" unicode="&#x2019;" horiz-adv-x="409" 
d="M217 1290h64l-123 -354h-58z" />
    <glyph glyph-name="quotesinglbase" unicode="&#x201a;" horiz-adv-x="432" 
d="M233 164h64l-123 -354h-57z" />
    <glyph glyph-name="quotedblleft" unicode="&#x201c;" horiz-adv-x="665" 
d="M279 936h-58q-68 195 -121 352h64zM539 936h-56l-123 352h64z" />
    <glyph glyph-name="quotedblright" unicode="&#x201d;" horiz-adv-x="655" 
d="M477 1290h64l-123 -354h-58zM217 1290h64l-123 -354h-58z" />
    <glyph glyph-name="quotedblbase" unicode="&#x201e;" horiz-adv-x="686" 
d="M494 164h63l-123 -354h-55zM233 164h64l-123 -354h-57z" />
    <glyph glyph-name="dagger" unicode="&#x2020;" horiz-adv-x="806" 
d="M696 1055v-39h-274v-807h-41v807h-275v39h275v291h41v-291h274z" />
    <glyph glyph-name="daggerdbl" unicode="&#x2021;" horiz-adv-x="829" 
d="M434 965v-478h297v-47h-297v-297h-47v297h-299v47h299v478h-299v47h299v299h47v-299h297v-47h-297z" />
    <glyph glyph-name="bullet" unicode="&#x2022;" horiz-adv-x="710" 
d="M530 682q0 -70 -48 -119t-118 -49t-117 48q-48 48 -48 119t49 119t118 48q68 0 116 -48t48 -118z" />
    <glyph glyph-name="ellipsis" unicode="&#x2026;" horiz-adv-x="1187" 
d="M567 0v162h62v-162h-62zM950 0v162h62v-162h-62zM182 0v162h62v-162h-62z" />
    <glyph glyph-name="perthousand" unicode="&#x2030;" horiz-adv-x="2086" 
d="M1706 6q-260 0 -260 331t260 331t260 -331t-260 -331zM1706 49q94 1 154 59t61 229q0 171 -59 228q-60 57 -156 57t-156 -56q-60 -58 -59 -229t61 -229t154 -59zM649 932q0 -330 -260 -330t-260 330t260 330t260 -330zM390 645q95 0 155 58q59 59 59 229t-59 228t-155 58
t-156 -58t-60 -228t60 -229q61 -58 156 -58zM1128 1270h54l-824 -1270h-53zM1095 6q-259 0 -259 331t259 331t259 -331t-259 -331zM1096 49q94 1 153 59t59 229t-58 228q-60 57 -155 57t-155 -56q-60 -58 -59 -229t61 -229t154 -59z" />
    <glyph glyph-name="guilsinglleft" unicode="&#x2039;" horiz-adv-x="659" 
d="M543 918l-387 -396l387 -393h-78l-379 393l379 396h78z" />
    <glyph glyph-name="guilsinglright" unicode="&#x203a;" horiz-adv-x="636" 
d="M96 918h76l381 -396l-381 -393h-76l385 393z" />
    <glyph glyph-name="fraction" unicode="&#x2044;" horiz-adv-x="595" 
d="M707 1309h38l-858 -1348h-39z" />
    <glyph glyph-name="Euro" unicode="&#x20ac;" horiz-adv-x="1249" 
d="M820 1235q-154 0 -254 -35t-184 -132q-83 -97 -110 -253h635v-47h-641q-8 -57 -8 -135t8 -129h641v-47h-635q70 -422 525 -422q184 0 364 63v-55q-189 -61 -391 -61t-358 110t-197 365h-152v47h146q-8 78 -8 142t8 122h-146v47h152q43 250 199 363q156 112 353 112
t394 -69v-56q-187 70 -341 70z" />
    <glyph glyph-name="trademark" unicode="&#x2122;" horiz-adv-x="1411" 
d="M356 633h-30v606h-252v31h532v-31h-250v-606zM729 633h-31v637h33q133 -186 254 -352l252 352h35v-637h-33v586q-49 -70 -143 -199t-111 -154l-256 353v-586z" />
    </font>
</defs>
</svg>
