<?xml version="1.0" standalone="no"?>
<!DOCTYPE svg PUBLIC "-//W3C//DTD SVG 1.1//EN" "http://www.w3.org/Graphics/SVG/1.1/DTD/svg11.dtd" >
<svg xmlns="http://www.w3.org/2000/svg">
<metadata>
Created by FontPrep 20130207 at Sun Jul 19 15:50:28 2015
 By Brian Stephens
Copyright (c) 2012 Admix Designs. All rights reserved.
</metadata>
<defs>
<font id="24de6cd323985189ede0f8509c41802e" horiz-adv-x='1024' >
  <font-face 
    font-family="MavenProLight100-Regular"
    font-weight="400"
    font-stretch="normal"
    units-per-em="2048"
    panose-1="2 0 0 0 0 0 0 0 0 0"
    ascent="1638"
    descent="-410"
    x-height="940"
    cap-height="1223"
    bbox="-156 -385 1852 1679"
    underline-thickness="102"
    underline-position="-102"
    unicode-range="U+0020-2122"
  />
<missing-glyph horiz-adv-x="530" 
 />
    <glyph glyph-name=".notdef" horiz-adv-x="530" 
 />
    <glyph glyph-name=".null" horiz-adv-x="0" 
 />
    <glyph glyph-name="nonmarkingreturn" horiz-adv-x="681" 
 />
    <glyph glyph-name="space" unicode=" " horiz-adv-x="530" 
 />
    <glyph glyph-name="exclam" unicode="!" horiz-adv-x="380" 
d="M164 0v160h12v-160h-12zM164 1223h12v-895h-12v895z" />
    <glyph glyph-name="quotedbl" unicode="&#x22;" horiz-adv-x="552" 
d="M399 831l-4 412h17l-4 -412h-9zM145 831l-4 412h17l-4 -412h-9z" />
    <glyph glyph-name="numbersign" unicode="#" horiz-adv-x="1132" 
d="M743 336l70 401h-424l-70 -401h424zM1014 748v-11h-191l-69 -401h194v-10h-196l-50 -291h-10l49 291h-424l-49 -291h-10l49 291h-186v10h188l70 401h-195v11h197l51 292h10l-51 -292h424l51 292h11l-52 -292h189z" />
    <glyph glyph-name="dollar" unicode="$" horiz-adv-x="1036" 
d="M496 1231q-178 0 -270 -81t-91 -220q0 -139 115 -203q59 -33 108 -49t138 -37v590zM897 309q0 66 -25 117t-55 80q-31 30 -92 56t-101 36t-118 29v-635q203 2 297 93t94 224zM909 309q0 -137 -97 -232t-306 -97v-226h-10v226q-207 0 -394 73v13q178 -74 394 -74v637
q-90 21 -142 37t-112 50q-119 66 -119 215q0 148 97 230t276 82v168h10v-168q182 -2 346 -72v-12q-164 70 -346 72v-592q210 -44 289 -101q79 -56 96 -114q18 -58 18 -115z" />
    <glyph glyph-name="percent" unicode="%" horiz-adv-x="1398" 
d="M367 1214q241 0 241 -306t-241 -306q-247 0 -244 307q0 178 68 242q70 63 176 63zM366 614q102 0 166 60t64 235q0 242 -149 283q-35 10 -81 10q-93 0 -161 -55t-69 -233q-1 -180 64 -240t166 -60zM1112 1223l-807 -1223h-14l807 1223h14zM1036 621q242 -1 242 -307
t-242 -306q-246 0 -243 307q0 178 68 242q69 64 175 64zM805 315q1 -175 65 -235t165 -60t166 60t65 235q0 242 -149 283q-36 10 -82 10q-162 0 -210 -139q-20 -61 -20 -154z" />
    <glyph glyph-name="ampersand" unicode="&#x26;" horiz-adv-x="1085" 
d="M496 1231q-102 -1 -163 -59q-60 -58 -61 -148q0 -121 158 -313q129 77 199 149q69 72 69 159t-50 149t-152 63zM477 -8q227 0 387 207l-438 497q-137 -82 -214 -168t-77 -228q-1 -142 101 -226q102 -82 241 -82zM260 1024q0 96 64 158t170 61q108 1 162 -65t54 -158
t-72 -167q-73 -75 -202 -151l436 -495q72 98 119 233h13q-45 -137 -125 -241l176 -199h-15l-168 190q-164 -211 -395 -210q-145 0 -250 86q-104 86 -104 237t84 237t213 165q-160 193 -160 319z" />
    <glyph glyph-name="quotesingle" unicode="'" horiz-adv-x="411" 
d="M195 831l-5 412h17l-4 -412h-8z" />
    <glyph glyph-name="parenleft" unicode="(" horiz-adv-x="460" 
d="M135 524q0 -463 219 -870h-12q-219 412 -219 870t219 875h12q-219 -412 -219 -875z" />
    <glyph glyph-name="parenright" unicode=")" horiz-adv-x="466" 
d="M334 523q0 -458 -219 -869h-13q220 408 220 870t-220 875h13q219 -418 219 -876z" />
    <glyph glyph-name="asterisk" unicode="*" horiz-adv-x="673" 
d="M559 1270l-213 -119l213 -121l-6 -10l-209 125l2 -244h-12l2 244l-209 -125l-6 10l213 121l-213 119l6 10l209 -123l-2 242h12l-2 -242l209 123z" />
    <glyph glyph-name="plus" unicode="+" horiz-adv-x="933" 
d="M807 532v-12h-336v-336h-12v336h-336v12h336v336h12v-336h336z" />
    <glyph glyph-name="comma" unicode="," horiz-adv-x="364" 
d="M201 160h12l-98 -330h-13z" />
    <glyph glyph-name="hyphen" unicode="-" horiz-adv-x="944" 
d="M123 522v10h684v-10h-684z" />
    <glyph glyph-name="period" unicode="." horiz-adv-x="331" 
d="M164 0v160h12v-160h-12z" />
    <glyph glyph-name="slash" unicode="/" horiz-adv-x="679" 
d="M717 1399h12l-752 -1745h-12z" />
    <glyph glyph-name="zero" unicode="0" horiz-adv-x="1093" 
d="M557 -8q225 0 323 151q97 152 97 469t-97 468q-96 151 -322 151t-324 -151t-99 -468q0 -317 98 -469q99 -151 324 -151zM556 1243q228 0 331 -154q102 -155 102 -477t-102 -478q-101 -156 -329 -154q-228 0 -332 155q-103 155 -103 477t102 477q103 154 331 154z" />
    <glyph glyph-name="one" unicode="1" horiz-adv-x="675" 
d="M434 1223v-1223h-12v1206l-258 -147v14l260 150h10z" />
    <glyph glyph-name="two" unicode="2" horiz-adv-x="1005" 
d="M901 10v-10h-764v6q258 208 457 419q250 265 250 495q0 120 -94 216t-272 95q-178 0 -333 -72v12q157 72 337 72t277 -99t97 -235q0 -338 -696 -899h741z" />
    <glyph glyph-name="three" unicode="3" horiz-adv-x="909" 
d="M817 309q-1 -161 -109 -245t-304 -84t-316 65v12q118 -65 312 -65t299 82t105 234t-104 239q-104 86 -311 88h-151v10h147q186 4 281 82q94 78 94 216t-96 213t-272 75t-283 -57v12q115 57 289 57t274 -78t100 -223q0 -264 -305 -301q350 -37 350 -332z" />
    <glyph glyph-name="four" unicode="4" horiz-adv-x="1009" 
d="M748 367v831l-639 -831h639zM760 367h180v-11h-180v-356h-12v356h-656v6l660 861h8v-856z" />
    <glyph glyph-name="five" unicode="5" horiz-adv-x="1019" 
d="M860 349q0 351 -381 356q-164 0 -319 -58l-4 2l84 574h555v-11h-545l-82 -550q156 55 318 55t274 -84q113 -84 112 -283q0 -106 -36 -183t-96 -116q-112 -71 -297 -71t-324 71v12q133 -72 352 -71q148 0 260 69q59 37 94 111t35 177z" />
    <glyph glyph-name="six" unicode="6" horiz-adv-x="1050" 
d="M135 549q1 -557 395 -557q196 0 289 103q94 103 94 263t-101 253t-273 94q-123 -1 -229 -45t-175 -105v-6zM539 717q178 0 282 -96q105 -97 105 -263t-98 -272t-298 -106q-406 0 -407 577q0 176 40 308t95 202t133 112t137 53q58 11 118 11t138 -12v-10q-66 10 -131 10
t-123 -11q-58 -10 -132 -52q-75 -42 -129 -110t-93 -194q-39 -127 -41 -297q71 61 177 105t227 45z" />
    <glyph glyph-name="seven" unicode="7" horiz-adv-x="1030" 
d="M127 1223h786v-11l-475 -1212h-14l477 1212h-774v11z" />
    <glyph glyph-name="eight" unicode="8" 
d="M186 953q0 -129 88 -203t250 -74t249 74t87 204t-87 203q-87 74 -249 74t-250 -74t-88 -204zM524 -8q186 0 288 89q101 89 101 247t-101 246q-102 88 -288 90q-186 0 -287 -90t-101 -246q0 -158 100 -247q102 -89 288 -89zM524 1243q168 0 258 -77t90 -207
q0 -131 -76 -205t-221 -84q171 -12 261 -102t90 -248q0 -156 -104 -248t-298 -92q-193 0 -297 92t-104 249t90 247t258 102q-143 10 -220 85t-77 205t91 206q91 77 259 77z" />
    <glyph glyph-name="nine" unicode="9" horiz-adv-x="1071" 
d="M913 674q1 557 -393 557q-196 1 -290 -103t-95 -264t101 -253t274 -93q123 0 229 44t174 106v6zM510 506q-178 0 -283 96q-104 96 -104 262t97 272t299 107q405 0 407 -577q0 -176 -40 -308t-95 -202t-133 -112t-138 -53q-58 -11 -118 -11t-138 12v10q66 -10 131 -10
t123 11t132 52q75 41 129 109t93 194t41 297q-70 -61 -176 -105t-227 -44z" />
    <glyph glyph-name="colon" unicode=":" horiz-adv-x="339" 
d="M164 780v160h12v-160h-12zM164 0v160h12v-160h-12z" />
    <glyph glyph-name="semicolon" unicode=";" horiz-adv-x="370" 
d="M176 160h12l-98 -330h-12zM164 780v160h12v-160h-12z" />
    <glyph glyph-name="less" unicode="&#x3c;" horiz-adv-x="993" 
d="M127 530l741 332v-12l-723 -324l723 -325v-13l-741 334v8z" />
    <glyph glyph-name="equal" unicode="=" horiz-adv-x="948" 
d="M121 326h684v-13h-684v13zM121 739h684v-12h-684v12z" />
    <glyph glyph-name="greater" unicode="&#x3e;" horiz-adv-x="989" 
d="M868 530v-8l-741 -334v13l723 325l-723 324v12z" />
    <glyph glyph-name="question" unicode="?" horiz-adv-x="727" 
d="M348 0v160h12v-160h-12zM317 1243q243 0 321 -164q26 -55 26 -132t-31 -137t-76 -100t-90 -82q-107 -100 -107 -280v-20h-12v20q0 82 23 148t66 113t130 131q86 83 84 210q0 88 -35 148q-77 132 -309 133q-121 0 -221 -45v10q102 47 231 47z" />
    <glyph glyph-name="at" unicode="@" horiz-adv-x="1869" 
d="M1021 500q-382 0 -382 -228q0 -72 49 -115q77 -69 199 -69q184 0 264 98q35 43 43 103l27 184q-117 27 -200 27zM1233 596q0 209 -235 209q-121 0 -214 -25v6q86 27 211 27q246 0 246 -217q0 -43 -6 -82l-31 -211q-9 -69 18 -119q52 -94 187 -94t225 129t90 318
q0 293 -194 493t-486 199q-231 0 -438 -118q-207 -119 -334 -321t-127 -434q0 -290 193 -490t485 -200q186 0 365 80l-2 -8q-176 -80 -363 -80q-295 0 -491 203t-195 495q0 232 128 438t337 324t442 119q297 0 493 -202t196 -498q1 -193 -93 -324t-217 -131t-174 54t-53 130
q-20 -100 -112 -143t-188 -43q-97 0 -181 43t-84 147q-1 62 27 108q77 130 333 130q111 0 232 -27l4 33q6 43 6 82z" />
    <glyph glyph-name="A" unicode="A" horiz-adv-x="1198" 
d="M594 1200l-334 -784h668zM598 1223l520 -1223h-14l-172 406h-676l-172 -406h-14l520 1223h8z" />
    <glyph glyph-name="B" unicode="B" horiz-adv-x="1060" 
d="M135 631h383q176 0 267 84t91 209q0 124 -90 206t-268 82h-383v-581zM135 10h436q172 0 269 84q96 84 96 227t-102 221t-265 79h-434v-611zM123 0v1223h395q184 0 278 -84t93 -205q0 -121 -70 -202t-203 -103q150 -10 241 -90q91 -79 91 -223t-99 -230t-278 -86h-448z
" />
    <glyph glyph-name="C" unicode="C" horiz-adv-x="1134" 
d="M725 -8q137 0 315 55v-12q-186 -55 -348 -55q-295 0 -442 182q-55 68 -91 182t-36 264t36 264q65 207 223 296q131 75 297 75q165 0 361 -63v-13q-190 63 -356 63t-296 -72q-253 -142 -253 -568q0 -164 50 -292q49 -128 137 -192t177 -88q89 -26 226 -26z" />
    <glyph glyph-name="D" unicode="D" horiz-adv-x="1148" 
d="M135 1212v-1202h334q573 0 573 601t-573 601h-334zM123 1223h346q586 1 586 -611t-586 -612h-346v1223z" />
    <glyph glyph-name="E" unicode="E" horiz-adv-x="937" 
d="M850 1223v-11h-715v-583h633v-11h-633v-608h715v-10h-727v1223h727z" />
    <glyph glyph-name="F" unicode="F" horiz-adv-x="919" 
d="M829 1223v-11h-694v-591h613v-11h-613v-610h-12v1223h706z" />
    <glyph glyph-name="G" unicode="G" horiz-adv-x="1179" 
d="M610 598h457v-549q-182 -70 -375 -69q-295 0 -442 182q-55 68 -91 184t-36 263q0 148 36 263t91 184q55 68 132 112q132 74 298 75q166 0 362 -63v-13q-190 63 -356 63t-297 -73q-76 -43 -130 -109t-89 -180q-35 -113 -35 -259t35 -260q35 -113 89 -179
q146 -178 439 -178q180 0 357 63v533h-445v10z" />
    <glyph glyph-name="H" unicode="H" horiz-adv-x="1112" 
d="M971 0h-13v608h-823v-608h-12v1223h12v-605h823v605h13v-1223z" />
    <glyph glyph-name="I" unicode="I" horiz-adv-x="299" 
d="M123 1223h12v-1223h-12v1223z" />
    <glyph glyph-name="J" unicode="J" horiz-adv-x="718" 
d="M580 1223h12v-918q0 -326 -289 -325q-115 0 -227 49v12q104 -49 227 -49q276 0 277 313v918z" />
    <glyph glyph-name="K" unicode="K" horiz-adv-x="997" 
d="M135 6h-12v1217h12v-785l713 785h14l-512 -566l568 -657h-17l-559 649l-207 -227v-416z" />
    <glyph glyph-name="L" unicode="L" horiz-adv-x="886" 
d="M123 1223h12v-1213h672v-10h-684v1223z" />
    <glyph glyph-name="M" unicode="M" horiz-adv-x="1333" 
d="M1200 1223v-1223h-12v1198l-526 -745l-527 745v-1198h-12v1223h10l529 -750l528 750h10z" />
    <glyph glyph-name="N" unicode="N" horiz-adv-x="1134" 
d="M1004 0h-9l-860 1196v-1196h-12v1223h8l860 -1196v1196h13v-1223z" />
    <glyph glyph-name="O" unicode="O" horiz-adv-x="1361" 
d="M679 -20q-556 0 -556 632t556 631q556 1 556 -631t-556 -632zM135 612q0 -304 131 -462t413 -158t413 158t131 462q0 618 -543 619q-283 0 -414 -157t-131 -462z" />
    <glyph glyph-name="P" unicode="P" horiz-adv-x="950" 
d="M481 1212h-346v-688h344q172 0 281 90q108 90 108 249t-101 254q-102 95 -286 95zM123 1223h358q191 1 295 -97t104 -263t-111 -257q-112 -92 -290 -92h-344v-508h-12v1217z" />
    <glyph glyph-name="Q" unicode="Q" horiz-adv-x="1343" 
d="M135 612q0 -304 131 -462t413 -158t413 158t131 462q0 618 -543 619q-283 0 -414 -157t-131 -462zM123 612q0 631 556 631t556 -631t-551 -632q47 -305 365 -320v-12q-330 14 -377 332q-283 2 -416 162t-133 470z" />
    <glyph glyph-name="R" unicode="R" horiz-adv-x="1036" 
d="M518 1212h-383v-659h381q166 0 270 87t104 239q0 153 -98 243t-274 90zM516 543h-381v-543h-12v1223h395q182 -1 284 -95t101 -242q0 -148 -86 -236t-229 -103l350 -547h-14l-349 545q-18 -2 -59 -2z" />
    <glyph glyph-name="S" unicode="S" horiz-adv-x="1036" 
d="M496 1243q186 0 356 -72v-12q-170 72 -354 72t-273 -81q-90 -80 -90 -196q-1 -116 57 -180t144 -87q86 -25 186 -51t186 -52t144 -97q57 -69 57 -193t-99 -219t-310 -95t-398 73v13q178 -74 390 -74t309 91q96 91 96 221t-80 200q-79 70 -193 96t-228 54q-114 26 -194 94
t-79 198q0 130 93 213q94 84 280 84z" />
    <glyph glyph-name="T" unicode="T" horiz-adv-x="1075" 
d="M539 0h-13v1212h-473v11h959v-11h-473v-1212z" />
    <glyph glyph-name="U" unicode="U" horiz-adv-x="1161" 
d="M123 1223h12v-783q0 -216 115 -332q116 -116 326 -116t326 114t116 334v783h12v-783q0 -223 -118 -342q-118 -118 -336 -118t-336 118t-117 342v783z" />
    <glyph glyph-name="V" unicode="V" horiz-adv-x="1183" 
d="M590 0l-520 1223h14l510 -1200l510 1200h14l-520 -1223h-8z" />
    <glyph glyph-name="W" unicode="W" horiz-adv-x="1705" 
d="M862 1196l-391 -1196h-8l-391 1223h14l381 -1196l391 1196h8l391 -1196l381 1196h15l-391 -1223h-9z" />
    <glyph glyph-name="X" unicode="X" horiz-adv-x="1097" 
d="M1008 0h-15l-444 612l-447 -612h-14l455 623l-434 600h14l426 -590l428 590h14l-436 -600z" />
    <glyph glyph-name="Y" unicode="Y" horiz-adv-x="1038" 
d="M530 0h-12v485l-455 738h15l446 -725l449 725h14l-457 -738v-485z" />
    <glyph glyph-name="Z" unicode="Z" horiz-adv-x="1112" 
d="M135 0v6l844 1206h-819v11h835v-6l-841 -1207h856v-10h-875z" />
    <glyph glyph-name="bracketleft" unicode="[" horiz-adv-x="522" 
d="M123 -346v1745h297v-10h-285v-1725h285v-10h-297z" />
    <glyph glyph-name="backslash" unicode="\" horiz-adv-x="690" 
d="M729 -346h-12l-752 1745h12z" />
    <glyph glyph-name="bracketright" unicode="]" horiz-adv-x="583" 
d="M420 1399v-1745h-297v10h285v1725h-285v10h297z" />
    <glyph glyph-name="asciicircum" unicode="^" horiz-adv-x="747" 
d="M371 1300l-265 -456h-12l273 471h8l272 -471h-12z" />
    <glyph glyph-name="underscore" unicode="_" horiz-adv-x="851" 
d="M0 -49h852v-10h-852v10z" />
    <glyph glyph-name="grave" unicode="`" horiz-adv-x="522" 
d="M141 1362h19l227 -252h-14z" />
    <glyph glyph-name="a" unicode="a" horiz-adv-x="1015" 
d="M864 260v244q-197 37 -317 37t-249 -44q-73 -26 -118 -84q-45 -57 -45 -141t40 -142q41 -58 103 -84q224 -93 447 -3q61 25 100 81t39 136zM485 954q217 0 305 -98t87 -297v-299q0 -84 -40 -143t-105 -85q-115 -46 -198 -46q-82 0 -140 11q-270 52 -271 271q0 90 46 152
t122 88q127 45 254 45t319 -37v43q0 193 -83 288t-296 95q-125 0 -256 -35v13q135 34 256 34z" />
    <glyph glyph-name="b" unicode="b" horiz-adv-x="1005" 
d="M135 266q1 -112 93 -194q34 -30 100 -52t145 -22q80 0 142 17t130 63t107 147q39 100 39 246q0 471 -420 471q-184 0 -336 -65v-611zM471 954q432 0 432 -483q0 -121 -29 -212q-28 -91 -70 -142t-120 -91t-186 -40q-192 0 -280 76q-95 84 -95 204v1043h12v-420
q158 65 336 65z" />
    <glyph glyph-name="c" unicode="c" horiz-adv-x="905" 
d="M578 942q-100 0 -166 -20q-68 -20 -134 -68q-142 -104 -143 -401q0 -296 194 -401q98 -54 223 -54q126 0 271 45v-12q-141 -45 -234 -45t-149 11q-136 26 -220 126q-97 118 -97 360q0 131 39 231t107 150q127 90 270 90t284 -45v-12q-145 45 -245 45z" />
    <glyph glyph-name="d" unicode="d" horiz-adv-x="1056" 
d="M553 -2q222 0 303 144q35 61 35 124v611q-152 66 -336 65q-420 0 -420 -471q0 -145 39 -245t107 -147q68 -45 130 -63t142 -18zM555 954q178 0 336 -65v420h12v-1043q0 -117 -95 -204q-36 -32 -105 -54q-118 -38 -267 -13q-51 9 -111 40t-103 82q-42 51 -70 142
q-29 91 -29 212q0 483 432 483z" />
    <glyph glyph-name="e" unicode="e" horiz-adv-x="1021" 
d="M538 942q-301 0 -381 -297q-22 -78 -22 -166h787v6q0 104 -29 190q-29 87 -67 139t-110 90t-178 38zM536 954q108 0 184 -39q75 -39 115 -92q39 -53 69 -142t30 -196v-16h-799v-2q0 -245 123 -357t301 -112t307 57v-12q-136 -57 -314 -57t-304 114t-125 367q0 92 21 174
q83 313 392 313z" />
    <glyph glyph-name="f" unicode="f" horiz-adv-x="591" 
d="M446 1313q-159 0 -205 -95q-24 -48 -24 -124v-154h326v-10h-326v-930h-12v930h-125v10h125v154q0 159 93 199q69 30 132 30t129 -18v-11q-66 19 -113 19z" />
    <glyph glyph-name="g" unicode="g" 
d="M889 678q0 71 -54 152q-32 48 -108 80t-184 32q-408 0 -408 -465q0 -213 90 -329q100 -123 320 -123q178 -1 344 79v574zM543 954q93 0 161 -24q120 -41 163 -128q34 -65 34 -124v-754q0 -309 -405 -309q-131 0 -238 27v12q121 -27 238 -27q393 0 393 297v168
q-170 -82 -344 -82q-422 0 -422 472t420 472z" />
    <glyph glyph-name="h" unicode="h" horiz-adv-x="1013" 
d="M534 954q173 0 261 -82t88 -262v-610h-13v610q0 332 -331 332q-186 0 -404 -106v-836h-12v1309h12v-461q226 106 399 106z" />
    <glyph glyph-name="i" unicode="i" horiz-adv-x="278" 
d="M123 0v940h12v-940h-12zM123 1126v136h12v-136h-12z" />
    <glyph glyph-name="j" unicode="j" horiz-adv-x="364" 
d="M193 1262h12v-136h-12v136zM193 -158v1098h12v-1098q0 -173 -122 -213q-44 -14 -108 -14h-6v12h6q112 0 165 51q53 50 53 164z" />
    <glyph glyph-name="k" unicode="k" horiz-adv-x="831" 
d="M135 0h-12v1309h12v-959l570 590h16l-406 -420l459 -520h-16l-451 512l-172 -178v-334z" />
    <glyph glyph-name="l" unicode="l" horiz-adv-x="313" 
d="M143 0v1309h13v-1309h-13z" />
    <glyph glyph-name="m" unicode="m" horiz-adv-x="1669" 
d="M1210 954q322 0 322 -344v-610h-12v610q0 332 -310 332q-217 0 -415 -133q39 -78 39 -199v-610h-13v610q0 332 -309 332q-180 0 -377 -108v-834h-12v842q213 112 401 112t264 -135q207 135 422 135z" />
    <glyph glyph-name="n" unicode="n" horiz-adv-x="1003" 
d="M539 954q344 0 344 -342v-612h-13v612q0 330 -331 330q-197 0 -404 -111v-831h-12v838q215 116 416 116z" />
    <glyph glyph-name="o" unicode="o" horiz-adv-x="1122" 
d="M985 468q0 138 -38 236t-103 148q-121 90 -283 90t-281 -90q-67 -49 -106 -147q-39 -99 -39 -237t39 -236t106 -145q124 -89 285 -89t279 89q66 48 103 145q38 98 38 236zM269 861q128 93 295 93q166 0 289 -93q144 -107 144 -394q0 -141 -39 -241q-40 -100 -106 -148
q-128 -94 -290 -93q-163 1 -293 93q-69 49 -107 148q-39 100 -39 242t39 242t107 151z" />
    <glyph glyph-name="p" unicode="p" 
d="M473 942q-222 0 -303 -144q-35 -61 -35 -124v-611q152 -66 336 -65q420 0 420 471q0 145 -39 245t-107 147q-68 45 -130 63t-142 18zM471 -14q-178 0 -336 65v-422h-12v1045q0 117 95 204q36 32 105 54q118 38 267 13q51 -9 111 -40q61 -31 103 -82t70 -142t29 -212
q0 -483 -432 -483z" />
    <glyph glyph-name="q" unicode="q" horiz-adv-x="1048" 
d="M891 674q-1 112 -93 194q-34 30 -100 52t-145 22q-80 0 -142 -17t-130 -63t-107 -147q-39 -100 -39 -246q0 -471 420 -471q184 0 336 65v611zM555 -14q-432 0 -432 483q0 121 29 212t70 142q42 51 120 91t186 40q192 0 280 -76q36 -32 66 -85t29 -119v-1045h-12v422
q-158 -65 -336 -65z" />
    <glyph glyph-name="r" unicode="r" horiz-adv-x="598" 
d="M123 0v870q199 78 412 84v-12q-205 -6 -400 -80v-862h-12z" />
    <glyph glyph-name="s" unicode="s" horiz-adv-x="862" 
d="M127 728q0 100 74 162q74 64 214 64t281 -49v-12q-141 49 -277 49t-208 -61t-72 -155q1 -94 63 -145t152 -71l180 -40t153 -78q63 -56 63 -157t-80 -175t-249 -74t-321 55v12q152 -55 319 -55t243 70t76 168t-63 150t-153 74t-180 42t-153 73q-62 53 -62 153z" />
    <glyph glyph-name="t" unicode="t" horiz-adv-x="610" 
d="M412 -2q59 0 125 16v-12q-74 -16 -125 -16q-229 0 -230 227v717h-125v10h125v266h13v-266h335v-10h-335v-717q0 -215 217 -215z" />
    <glyph glyph-name="u" unicode="u" 
d="M881 379v561h12v-561q0 -189 -100 -291q-101 -102 -285 -102t-285 101q-100 101 -100 292v561h12v-561q0 -185 97 -283q98 -98 276 -98t276 98t97 283z" />
    <glyph glyph-name="v" unicode="v" horiz-adv-x="1007" 
d="M512 20l412 920h14l-422 -940h-8l-422 940h14z" />
    <glyph glyph-name="w" unicode="w" horiz-adv-x="1558" 
d="M782 915l-323 -915h-8l-355 940h15l344 -917l323 917h8l324 -917l344 917h14l-354 -940h-8z" />
    <glyph glyph-name="x" unicode="x" horiz-adv-x="948" 
d="M94 0l367 475l-357 465h15l350 -457l350 457h15l-357 -465l369 -475h-15l-362 467l-360 -467h-15z" />
    <glyph glyph-name="y" unicode="y" horiz-adv-x="970" 
d="M205 -385q-45 0 -92 18v13q131 -50 233 28q61 47 109 172l45 119l-404 975h15l395 -958l362 958h15l-416 -1098q-47 -125 -111 -176t-151 -51z" />
    <glyph glyph-name="z" unicode="z" horiz-adv-x="905" 
d="M819 10v-10h-700v8l659 922h-641v10h656v-8l-658 -922h684z" />
    <glyph glyph-name="braceleft" unicode="{" horiz-adv-x="534" 
d="M248 1137q0 115 58 189t155 73v-10q-89 0 -145 -72t-56 -180v-389q0 -119 -141 -222q141 -102 141 -221v-389q0 -108 55 -180t146 -72v-10q-96 0 -155 74q-58 74 -58 188v389q-1 115 -142 217v8q141 102 142 218v389z" />
    <glyph glyph-name="bar" unicode="|" horiz-adv-x="342" 
d="M160 -346v1745h12v-1745h-12z" />
    <glyph glyph-name="braceright" unicode="}" horiz-adv-x="544" 
d="M319 -84q0 -114 -58 -188t-155 -74v10q90 0 146 72q55 72 55 180v389q0 119 142 221q-141 102 -142 222v389q0 109 -55 181t-146 71v10q96 0 154 -74t59 -188v-389q1 -116 142 -218v-8q-141 -102 -142 -217v-389z" />
    <glyph glyph-name="asciitilde" unicode="~" horiz-adv-x="995" 
d="M319 631q-69 0 -123 -43t-83 -109l-13 4q31 68 90 114t129 46t192 -80t191 -80q121 0 187 152l12 -4q-66 -160 -207 -160q-68 0 -186 80t-189 80z" />
    <glyph glyph-name="exclamdown" unicode="&#xa1;" horiz-adv-x="380" 
d="M176 942v-160h-12v160h12zM176 -281h-12v895h12v-895z" />
    <glyph glyph-name="cent" unicode="&#xa2;" horiz-adv-x="905" 
d="M135 695q0 -231 92 -346q113 -138 324 -138v944q-154 0 -276 -92q-65 -49 -103 -147t-37 -221zM561 1155v-944q117 0 262 45v-12q-141 -45 -262 -45v-197h-10v197q-133 0 -213 44t-121 96t-67 140q-27 88 -27 203q0 319 194 428q102 57 234 57v176h10v-176q121 0 262 -45
v-12q-145 45 -262 45z" />
    <glyph glyph-name="sterling" unicode="&#xa3;" horiz-adv-x="1001" 
d="M279 33q83 0 239 -31t252 -31t168 23v-12q-72 -23 -170 -23t-255 32t-240 32t-189 -29v10q102 29 182 29v536h-180v11h180v338q0 137 98 237t298 100q141 0 276 -63v-12q-127 63 -276 63q-197 0 -290 -96t-93 -229v-338h493v-11h-493v-536z" />
    <glyph glyph-name="yen" unicode="&#xa5;" horiz-adv-x="1038" 
d="M881 532v-10h-351v-246h351v-10h-351v-266h-12v266h-348v10h348v246h-348v10h344l-451 691h15l446 -684l449 684h14l-452 -691h346z" />
    <glyph glyph-name="section" unicode="&#xa7;" horiz-adv-x="997" 
d="M866 634q0 69 -50 118q-50 50 -108 72t-160 55t-149 53q-125 -4 -191 -58t-65 -129q1 -77 51 -125t110 -70t158 -52t148 -54q132 12 194 66t62 124zM530 1313q143 0 281 -41v-12q-137 40 -277 40t-214 -50q-72 -50 -72 -127t64 -127t158 -80l186 -60t158 -84
q65 -55 65 -133q1 -78 -61 -133t-191 -70q137 -68 137 -186q0 -92 -81 -157t-251 -65t-311 48v12q141 -47 309 -47t245 60q77 61 77 145t-64 136t-156 81t-183 57t-154 83q-63 54 -64 136q-1 81 63 137t185 64q-143 70 -143 180q0 86 75 140q76 53 219 53z" />
    <glyph glyph-name="dieresis" unicode="&#xa8;" horiz-adv-x="587" 
d="M430 1110v156h12v-156h-12zM123 1110v156h12v-156h-12z" />
    <glyph glyph-name="copyright" unicode="&#xa9;" horiz-adv-x="1464" 
d="M727 -10q256 0 439 182q184 182 184 439t-184 439t-439 183q-256 0 -439 -182q-184 -181 -184 -439t184 -440t439 -182zM727 1241q260 0 445 -184q186 -185 186 -445t-186 -445t-445 -185q-260 0 -445 185t-186 445q0 260 186 444t445 185zM401 610q0 -374 342 -379
q100 0 211 33v-8q-98 -33 -188 -33q-90 1 -144 17q-56 16 -111 55q-54 39 -86 120t-32 195t32 196q77 195 316 195q90 0 213 -38v-9q-128 39 -202 39q-139 0 -236 -72q-115 -87 -115 -311z" />
    <glyph glyph-name="ordfeminine" unicode="&#xaa;" horiz-adv-x="651" 
d="M518 969v135q-92 20 -172 20q-238 0 -237 -149q-1 -84 67 -118t125 -34t97 8q40 9 80 45t40 93zM305 1358q125 0 173 -54t48 -167v-168q0 -61 -41 -99t-82 -46q-41 -9 -87 -9t-89 10t-85 48t-42 102q0 158 246 158q80 0 172 -21v25q0 109 -47 161t-147 52t-160 -21v8
q73 21 141 21z" />
    <glyph glyph-name="guillemotleft" unicode="&#xab;" horiz-adv-x="1042" 
d="M537 522l397 -393h-16l-398 393l398 400h16zM113 522l397 -393h-16l-398 393l398 400h16z" />
    <glyph glyph-name="logicalnot" unicode="&#xac;" horiz-adv-x="1015" 
d="M141 578h752v-234h-10v221h-742v13z" />
    <glyph glyph-name="registered" unicode="&#xae;" horiz-adv-x="1464" 
d="M506 983v-408h266q112 -1 176 53t64 151t-64 151t-176 53h-266zM772 989q116 1 182 -55t66 -153t-64 -153t-176 -59l256 -329h-10l-256 329h-264v-329h-8v749h274zM727 -10q256 0 439 182q184 182 184 439t-184 439t-439 183q-256 0 -439 -182q-184 -181 -184 -439
t184 -440t439 -182zM727 1241q260 0 445 -184q186 -185 186 -445t-186 -445t-445 -185q-260 0 -445 185t-186 445q0 260 186 444t445 185z" />
    <glyph glyph-name="macron" unicode="&#xaf;" horiz-adv-x="659" 
d="M518 1149v-12h-395v12h395z" />
    <glyph glyph-name="degree" unicode="&#xb0;" horiz-adv-x="694" 
d="M582 1116q0 -96 -69 -165t-165 -69t-165 70q-69 68 -68 164q0 96 68 165q69 69 165 69t165 -69t69 -165zM573 1116q0 94 -65 160q-66 66 -160 66t-160 -66t-66 -160t66 -160t160 -66t160 66q65 66 65 160z" />
    <glyph glyph-name="plusminus" unicode="&#xb1;" horiz-adv-x="942" 
d="M123 12h684v-12h-684v12zM471 868v-336h336v-12h-336v-336h-12v336h-336v12h336v336h12z" />
    <glyph glyph-name="acute" unicode="&#xb4;" horiz-adv-x="514" 
d="M360 1362h21l-234 -252h-14z" />
    <glyph glyph-name="mu" unicode="&#xb5;" horiz-adv-x="1009" 
d="M123 -371v1313h12v-612q0 -330 332 -330q197 0 403 111v831h13v-838q-215 -117 -416 -116q-283 0 -332 229v-588h-12z" />
    <glyph glyph-name="paragraph" unicode="&#xb6;" horiz-adv-x="782" 
d="M532 1319h72v-1227h-12v524h-60q-416 0 -415 353q-1 350 415 350z" />
    <glyph glyph-name="periodcentered" unicode="&#xb7;" horiz-adv-x="342" 
d="M164 494v159h12v-159h-12z" />
    <glyph glyph-name="cedilla" unicode="&#xb8;" horiz-adv-x="628" 
d="M162 -252h-27l240 252h14z" />
    <glyph glyph-name="ordmasculine" unicode="&#xba;" horiz-adv-x="741" 
d="M137 1085q0 -145 70 -203t169 -59q99 1 168 59q68 58 68 204t-68 205q-69 58 -167 59q-240 0 -240 -265zM377 1358q102 0 173 -60t71 -213q0 -152 -71 -211t-173 -59q-248 -1 -248 271t248 272z" />
    <glyph glyph-name="guillemotright" unicode="&#xbb;" horiz-adv-x="1028" 
d="M96 129l398 393l-398 400h17l397 -400l-397 -393h-17zM520 129l398 393l-398 400h17l397 -400l-397 -393h-17z" />
    <glyph glyph-name="questiondown" unicode="&#xbf;" horiz-adv-x="727" 
d="M401 942v-160h-12v160h12zM389 614h12v-20q-1 -82 -23 -148t-71 -119t-129 -130q-80 -76 -80 -205q0 -88 35 -148q77 -132 299 -133q131 0 232 45v-10q-102 -47 -232 -47q-245 0 -320 164q-26 55 -26 132t31 137t76 100t90 82t75 113q31 71 31 167v20z" />
    <glyph glyph-name="Agrave" unicode="&#xc0;" horiz-adv-x="1198" 
d="M420 1645h18l228 -252h-15zM594 1200l-334 -784h668zM598 1223l520 -1223h-14l-172 406h-676l-172 -406h-14l520 1223h8z" />
    <glyph glyph-name="Aacute" unicode="&#xc1;" horiz-adv-x="1198" 
d="M766 1645h20l-233 -252h-14zM594 1200l-334 -784h668zM598 1223l520 -1223h-14l-172 406h-676l-172 -406h-14l520 1223h8z" />
    <glyph glyph-name="Acircumflex" unicode="&#xc2;" horiz-adv-x="1198" 
d="M600 1645l229 -252h-14l-221 241l-219 -241h-15l228 252h12zM594 1200l-334 -784h668zM598 1223l520 -1223h-14l-172 406h-676l-172 -406h-14l520 1223h8z" />
    <glyph glyph-name="Atilde" unicode="&#xc3;" horiz-adv-x="1198" 
d="M485 1485q39 0 114 -40t112 -40q70 0 104 82l10 -4q-37 -90 -114 -90q-41 0 -114 40t-112 40q-73 0 -106 -74l-10 4q41 82 116 82zM594 1200l-334 -784h668zM598 1223l520 -1223h-14l-172 406h-676l-172 -406h-14l520 1223h8z" />
    <glyph glyph-name="Adieresis" unicode="&#xc4;" horiz-adv-x="1198" 
d="M741 1393v155h13v-155h-13zM434 1393v155h12v-155h-12zM594 1200l-334 -784h668zM598 1223l520 -1223h-14l-172 406h-676l-172 -406h-14l520 1223h8z" />
    <glyph glyph-name="Aring" unicode="&#xc5;" horiz-adv-x="1198" 
d="M594 1679q143 -1 143 -153t-143 -152t-143 152t143 153zM594 1667q-129 0 -129 -140t129 -141q129 0 129 140t-129 141zM594 1200l-334 -784h668zM598 1223l520 -1223h-14l-172 406h-676l-172 -406h-14l520 1223h8z" />
    <glyph glyph-name="AE" unicode="&#xc6;" horiz-adv-x="1658" 
d="M786 408v804h-10l-557 -804h567zM1513 1223v-11h-714v-583h633v-11h-633v-608h714v-10h-727v397h-575l-274 -397h-15l848 1223h743z" />
    <glyph glyph-name="Ccedilla" unicode="&#xc7;" horiz-adv-x="1134" 
d="M123 610q0 148 36 262q65 207 223 296q131 75 297 75q165 0 361 -63v-13q-190 63 -356 63t-296 -72q-253 -142 -253 -568q0 -164 50 -292q49 -128 137 -192q161 -117 370 -114q170 0 348 55v-12q-186 -55 -346 -55l-219 -232h-20l225 232q-291 7 -433 186q-54 68 -89 182
t-35 262z" />
    <glyph glyph-name="Egrave" unicode="&#xc8;" horiz-adv-x="937" 
d="M289 1645h18l228 -252h-15zM850 1223v-11h-715v-583h633v-11h-633v-608h715v-10h-727v1223h727z" />
    <glyph glyph-name="Eacute" unicode="&#xc9;" horiz-adv-x="937" 
d="M639 1645h20l-233 -252h-14zM850 1223v-11h-715v-583h633v-11h-633v-608h715v-10h-727v1223h727z" />
    <glyph glyph-name="Ecircumflex" unicode="&#xca;" horiz-adv-x="937" 
d="M489 1645l230 -252h-14l-222 241l-219 -241h-14l227 252h12zM850 1223v-11h-715v-583h633v-11h-633v-608h715v-10h-727v1223h727z" />
    <glyph glyph-name="Edieresis" unicode="&#xcb;" horiz-adv-x="937" 
d="M635 1393v155h12v-155h-12zM328 1393v155h12v-155h-12zM850 1223v-11h-715v-583h633v-11h-633v-608h715v-10h-727v1223h727z" />
    <glyph glyph-name="Igrave" unicode="&#xcc;" horiz-adv-x="299" 
d="M-45 1645h18l228 -252h-15zM123 1223h12v-1223h-12v1223z" />
    <glyph glyph-name="Iacute" unicode="&#xcd;" horiz-adv-x="299" 
d="M285 1645h20l-233 -252h-15zM123 1223h12v-1223h-12v1223z" />
    <glyph glyph-name="Icircumflex" unicode="&#xce;" horiz-adv-x="299" 
d="M135 1645l230 -252h-15l-221 241l-219 -241h-14l227 252h12zM123 1223h12v-1223h-12v1223z" />
    <glyph glyph-name="Idieresis" unicode="&#xcf;" horiz-adv-x="299" 
d="M276 1393v155h13v-155h-13zM-31 1393v155h13v-155h-13zM123 1223h12v-1223h-12v1223z" />
    <glyph glyph-name="Eth" unicode="&#xd0;" horiz-adv-x="1267" 
d="M254 1212v-596h457v-10h-457v-596h334q573 0 573 601t-573 601h-334zM82 606v10h160v607h346q586 1 586 -611t-586 -612h-346v606h-160z" />
    <glyph glyph-name="Ntilde" unicode="&#xd1;" horiz-adv-x="1134" 
d="M451 1485q39 0 113 -40t112 -40q70 0 104 82l11 -4q-37 -90 -115 -90q-41 0 -114 40t-111 40q-74 0 -107 -74l-10 4q41 82 117 82zM1004 0h-9l-860 1196v-1196h-12v1223h8l860 -1196v1196h13v-1223z" />
    <glyph glyph-name="Ograve" unicode="&#xd2;" horiz-adv-x="1361" 
d="M485 1645h19l227 -252h-14zM679 -20q-556 0 -556 632t556 631q556 1 556 -631t-556 -632zM135 612q0 -304 131 -462t413 -158t413 158t131 462q0 618 -543 619q-283 0 -414 -157t-131 -462z" />
    <glyph glyph-name="Oacute" unicode="&#xd3;" horiz-adv-x="1361" 
d="M836 1645h20l-233 -252h-15zM679 -20q-556 0 -556 632t556 631q556 1 556 -631t-556 -632zM135 612q0 -304 131 -462t413 -158t413 158t131 462q0 618 -543 619q-283 0 -414 -157t-131 -462z" />
    <glyph glyph-name="Ocircumflex" unicode="&#xd4;" horiz-adv-x="1361" 
d="M684 1645l229 -252h-14l-221 241l-219 -241h-15l228 252h12zM679 -20q-556 0 -556 632t556 631q556 1 556 -631t-556 -632zM135 612q0 -304 131 -462t413 -158t413 158t131 462q0 618 -543 619q-283 0 -414 -157t-131 -462z" />
    <glyph glyph-name="Otilde" unicode="&#xd5;" horiz-adv-x="1361" 
d="M563 1485q39 0 114 -40t111 -40q70 0 105 82l10 -4q-37 -90 -115 -90q-42 0 -114 40t-111 40q-73 0 -106 -74l-11 4q41 82 117 82zM679 -20q-556 0 -556 632t556 631q556 1 556 -631t-556 -632zM135 612q0 -304 131 -462t413 -158t413 158t131 462q0 618 -543 619
q-283 0 -414 -157t-131 -462z" />
    <glyph glyph-name="Odieresis" unicode="&#xd6;" horiz-adv-x="1361" 
d="M825 1393v155h13v-155h-13zM518 1393v155h12v-155h-12zM679 -20q-556 0 -556 632t556 631q556 1 556 -631t-556 -632zM135 612q0 -304 131 -462t413 -158t413 158t131 462q0 618 -543 619q-283 0 -414 -157t-131 -462z" />
    <glyph glyph-name="Oslash" unicode="&#xd8;" horiz-adv-x="1361" 
d="M135 612q0 -354 172 -506l733 1016q-133 109 -360 109q-283 0 -414 -157t-131 -462zM680 -8q281 0 412 158t131 462q0 350 -174 504l-736 -1016q134 -108 367 -108zM123 612q0 631 557 631q233 0 369 -110l65 90h12l-69 -97q178 -154 178 -514q0 -633 -555 -632
q-242 0 -373 110l-65 -90h-13l70 98q-176 152 -176 514z" />
    <glyph glyph-name="Ugrave" unicode="&#xd9;" horiz-adv-x="1161" 
d="M403 1645h19l227 -252h-14zM123 1223h12v-783q0 -216 115 -332q116 -116 326 -116t326 114t116 334v783h12v-783q0 -223 -118 -342q-118 -118 -336 -118t-336 118t-117 342v783z" />
    <glyph glyph-name="Uacute" unicode="&#xda;" horiz-adv-x="1161" 
d="M739 1645h21l-234 -252h-14zM123 1223h12v-783q0 -216 115 -332q116 -116 326 -116t326 114t116 334v783h12v-783q0 -223 -118 -342q-118 -118 -336 -118t-336 118t-117 342v783z" />
    <glyph glyph-name="Ucircumflex" unicode="&#xdb;" horiz-adv-x="1161" 
d="M582 1645l229 -252h-14l-222 241l-219 -241h-14l227 252h13zM123 1223h12v-783q0 -216 115 -332q116 -116 326 -116t326 114t116 334v783h12v-783q0 -223 -118 -342q-118 -118 -336 -118t-336 118t-117 342v783z" />
    <glyph glyph-name="Udieresis" unicode="&#xdc;" horiz-adv-x="1161" 
d="M723 1393v155h12v-155h-12zM416 1393v155h12v-155h-12zM123 1223h12v-783q0 -216 115 -332q116 -116 326 -116t326 114t116 334v783h12v-783q0 -223 -118 -342q-118 -118 -336 -118t-336 118t-117 342v783z" />
    <glyph glyph-name="Thorn" unicode="&#xde;" horiz-adv-x="964" 
d="M481 989h-346v-688h344q172 0 281 90q108 90 108 249t-101 254q-102 95 -286 95zM123 1223h12v-224h346q191 0 295 -97t104 -262t-111 -257q-112 -92 -290 -92h-344v-285h-12v1217z" />
    <glyph glyph-name="germandbls" unicode="&#xdf;" horiz-adv-x="983" 
d="M903 313q0 -313 -426 -313h-102v10h102q414 0 414 303q0 154 -110 239t-322 85h-84v10h55q197 0 295 77t98 218q0 289 -340 289q-178 0 -266 -94t-88 -267v-870h-12v870q0 178 91 276t275 97q352 0 353 -301q0 -127 -77 -204t-229 -95q184 -12 278 -97t95 -233z" />
    <glyph glyph-name="agrave" unicode="&#xe0;" horiz-adv-x="980" 
d="M334 1362h18l228 -252h-15zM864 260v244q-197 37 -317 37t-249 -44q-73 -26 -118 -84q-45 -57 -45 -141t40 -142q41 -58 103 -84q224 -93 447 -3q61 25 100 81t39 136zM485 954q217 0 305 -98t87 -297v-299q0 -84 -40 -143t-105 -85q-115 -46 -198 -46q-82 0 -140 11
q-270 52 -271 271q0 90 46 152t122 88q127 45 254 45t319 -37v43q0 193 -83 288t-296 95q-125 0 -256 -35v13q135 34 256 34z" />
    <glyph glyph-name="aacute" unicode="&#xe1;" horiz-adv-x="980" 
d="M676 1362h20l-233 -252h-14zM864 260v244q-197 37 -317 37t-249 -44q-73 -26 -118 -84q-45 -57 -45 -141t40 -142q41 -58 103 -84q224 -93 447 -3q61 25 100 81t39 136zM485 954q217 0 305 -98t87 -297v-299q0 -84 -40 -143t-105 -85q-115 -46 -198 -46q-82 0 -140 11
q-270 52 -271 271q0 90 46 152t122 88q127 45 254 45t319 -37v43q0 193 -83 288t-296 95q-125 0 -256 -35v13q135 34 256 34z" />
    <glyph glyph-name="acircumflex" unicode="&#xe2;" horiz-adv-x="980" 
d="M516 1362l229 -252h-14l-221 242l-219 -242h-15l228 252h12zM864 260v244q-197 37 -317 37t-249 -44q-73 -26 -118 -84q-45 -57 -45 -141t40 -142q41 -58 103 -84q224 -93 447 -3q61 25 100 81t39 136zM485 954q217 0 305 -98t87 -297v-299q0 -84 -40 -143t-105 -85
q-115 -46 -198 -46q-82 0 -140 11q-270 52 -271 271q0 90 46 152t122 88q127 45 254 45t319 -37v43q0 193 -83 288t-296 95q-125 0 -256 -35v13q135 34 256 34z" />
    <glyph glyph-name="atilde" unicode="&#xe3;" horiz-adv-x="980" 
d="M399 1202q39 0 114 -40t112 -40q70 0 104 82l10 -4q-37 -90 -114 -90q-41 0 -114 40t-112 40q-73 0 -106 -74l-10 4q41 82 116 82zM864 260v244q-197 37 -317 37t-249 -44q-73 -26 -118 -84q-45 -57 -45 -141t40 -142q41 -58 103 -84q224 -93 447 -3q61 25 100 81t39 136
zM485 954q217 0 305 -98t87 -297v-299q0 -84 -40 -143t-105 -85q-115 -46 -198 -46q-82 0 -140 11q-270 52 -271 271q0 90 46 152t122 88q127 45 254 45t319 -37v43q0 193 -83 288t-296 95q-125 0 -256 -35v13q135 34 256 34z" />
    <glyph glyph-name="adieresis" unicode="&#xe4;" horiz-adv-x="980" 
d="M662 1110v156h12v-156h-12zM354 1110v156h13v-156h-13zM864 260v244q-197 37 -317 37t-249 -44q-73 -26 -118 -84q-45 -57 -45 -141t40 -142q41 -58 103 -84q224 -93 447 -3q61 25 100 81t39 136zM485 954q217 0 305 -98t87 -297v-299q0 -84 -40 -143t-105 -85
q-115 -46 -198 -46q-82 0 -140 11q-270 52 -271 271q0 90 46 152t122 88q127 45 254 45t319 -37v43q0 193 -83 288t-296 95q-125 0 -256 -35v13q135 34 256 34z" />
    <glyph glyph-name="aring" unicode="&#xe5;" horiz-adv-x="980" 
d="M510 1397q143 0 143 -153t-143 -152q-143 0 -143 152t143 153zM510 1384q-129 0 -129 -140t129 -140t129 140t-129 140zM864 260v244q-197 37 -317 37t-249 -44q-73 -26 -118 -84q-45 -57 -45 -141t40 -142q41 -58 103 -84q224 -93 447 -3q61 25 100 81t39 136zM485 954
q217 0 305 -98t87 -297v-299q0 -84 -40 -143t-105 -85q-115 -46 -198 -46q-82 0 -140 11q-270 52 -271 271q0 90 46 152t122 88q127 45 254 45t319 -37v43q0 193 -83 288t-296 95q-125 0 -256 -35v13q135 34 256 34z" />
    <glyph glyph-name="ae" unicode="&#xe6;" horiz-adv-x="1775" 
d="M1276 942q-106 0 -186 -40q-82 -40 -127 -110q-89 -137 -89 -313h787v6q0 195 -95 329q-38 52 -111 90t-179 38zM864 260v244q-197 37 -317 37t-249 -44q-73 -26 -118 -84q-45 -57 -45 -141t40 -142q41 -58 103 -84q224 -93 447 -3q61 25 100 81t39 136zM485 954
q207 0 295 -90t94 -272q27 160 125 261t285 101q100 0 175 -39t115 -92t70 -142t29 -196v-16h-799v-29q6 -230 128 -336t298 -106t306 57v-12q-135 -57 -270 -57q-134 0 -220 32t-152 112q-66 81 -90 206v-76q0 -216 -260 -264q-53 -10 -108 -10q-54 0 -112 11
q-270 52 -271 271q0 90 46 152t122 88q127 45 254 45t319 -37v43q0 193 -83 288t-296 95q-125 0 -256 -35v13q135 34 256 34z" />
    <glyph glyph-name="ccedilla" unicode="&#xe7;" horiz-adv-x="905" 
d="M123 470q0 144 39 244t107 150q127 90 270 90t284 -45v-12q-145 45 -245 45t-166 -20q-68 -20 -134 -68q-142 -104 -143 -401q0 -296 194 -401q98 -54 223 -54q126 0 271 45v-12q-129 -43 -258 -45l-213 -238h-22l221 238q-162 0 -286 92q-142 104 -142 392z" />
    <glyph glyph-name="egrave" unicode="&#xe8;" horiz-adv-x="1021" 
d="M371 1362h18l227 -252h-14zM538 942q-301 0 -381 -297q-22 -78 -22 -166h787v6q0 104 -29 190q-29 87 -67 139t-110 90t-178 38zM536 954q108 0 184 -39q75 -39 115 -92q39 -53 69 -142t30 -196v-16h-799v-2q0 -245 123 -357t301 -112t307 57v-12q-136 -57 -314 -57
t-304 114t-125 367q0 92 21 174q83 313 392 313z" />
    <glyph glyph-name="eacute" unicode="&#xe9;" horiz-adv-x="1021" 
d="M678 1362h20l-233 -252h-14zM538 942q-301 0 -381 -297q-22 -78 -22 -166h787v6q0 104 -29 190q-29 87 -67 139t-110 90t-178 38zM536 954q108 0 184 -39q75 -39 115 -92q39 -53 69 -142t30 -196v-16h-799v-2q0 -245 123 -357t301 -112t307 57v-12q-136 -57 -314 -57
t-304 114t-125 367q0 92 21 174q83 313 392 313z" />
    <glyph glyph-name="ecircumflex" unicode="&#xea;" horiz-adv-x="1021" 
d="M528 1362l230 -252h-15l-221 242l-219 -242h-14l227 252h12zM538 942q-301 0 -381 -297q-22 -78 -22 -166h787v6q0 104 -29 190q-29 87 -67 139t-110 90t-178 38zM536 954q108 0 184 -39q75 -39 115 -92q39 -53 69 -142t30 -196v-16h-799v-2q0 -245 123 -357t301 -112
t307 57v-12q-136 -57 -314 -57t-304 114t-125 367q0 92 21 174q83 313 392 313z" />
    <glyph glyph-name="edieresis" unicode="&#xeb;" horiz-adv-x="1021" 
d="M674 1110v156h12v-156h-12zM367 1110v156h12v-156h-12zM538 942q-301 0 -381 -297q-22 -78 -22 -166h787v6q0 104 -29 190q-29 87 -67 139t-110 90t-178 38zM536 954q108 0 184 -39q75 -39 115 -92q39 -53 69 -142t30 -196v-16h-799v-2q0 -245 123 -357t301 -112t307 57
v-12q-136 -57 -314 -57t-304 114t-125 367q0 92 21 174q83 313 392 313z" />
    <glyph glyph-name="igrave" unicode="&#xec;" horiz-adv-x="278" 
d="M-47 1362h18l228 -252h-15zM123 0v940h12v-940h-12z" />
    <glyph glyph-name="iacute" unicode="&#xed;" horiz-adv-x="278" 
d="M305 1362h21l-234 -252h-14zM123 0v940h12v-940h-12z" />
    <glyph glyph-name="icircumflex" unicode="&#xee;" horiz-adv-x="278" 
d="M135 1362l230 -252h-15l-221 242l-219 -242h-14l227 252h12zM123 0v940h12v-940h-12z" />
    <glyph glyph-name="idieresis" unicode="&#xef;" horiz-adv-x="278" 
d="M276 1110v156h13v-156h-13zM-31 1110v156h13v-156h-13zM123 0v940h12v-940h-12z" />
    <glyph glyph-name="eth" unicode="&#xf0;" horiz-adv-x="1071" 
d="M913 549v6q-68 61 -174 105t-229 45q-172 1 -273 -93t-101 -254t93 -263q94 -103 290 -103q394 0 394 557zM926 557q0 -577 -407 -577q-202 0 -299 106t-97 272t104 262t283 97q121 0 227 -44t176 -106q-6 395 -200 557l-283 -159l-4 10l279 158q-125 98 -306 98h-34v12
h34q188 0 318 -104l196 112l5 -10l-193 -108q201 -170 201 -576z" />
    <glyph glyph-name="ntilde" unicode="&#xf1;" horiz-adv-x="1003" 
d="M385 1202q39 0 114 -40t111 -40q70 0 105 82l10 -4q-37 -90 -115 -90q-42 0 -114 40t-111 40q-73 0 -106 -74l-11 4q41 82 117 82zM539 954q344 0 344 -342v-612h-13v612q0 330 -331 330q-197 0 -404 -111v-831h-12v838q215 116 416 116z" />
    <glyph glyph-name="ograve" unicode="&#xf2;" horiz-adv-x="1122" 
d="M385 1362h18l228 -252h-15zM985 468q0 138 -38 236t-103 148q-121 90 -283 90t-281 -90q-67 -49 -106 -147q-39 -99 -39 -237t39 -236t106 -145q124 -89 285 -89t279 89q66 48 103 145q38 98 38 236zM269 861q128 93 295 93q166 0 289 -93q144 -107 144 -394
q0 -141 -39 -241q-40 -100 -106 -148q-128 -94 -290 -93q-163 1 -293 93q-69 49 -107 148q-39 100 -39 242t39 242t107 151z" />
    <glyph glyph-name="oacute" unicode="&#xf3;" horiz-adv-x="1122" 
d="M723 1362h20l-233 -252h-14zM985 468q0 138 -38 236t-103 148q-121 90 -283 90t-281 -90q-67 -49 -106 -147q-39 -99 -39 -237t39 -236t106 -145q124 -89 285 -89t279 89q66 48 103 145q38 98 38 236zM269 861q128 93 295 93q166 0 289 -93q144 -107 144 -394
q0 -141 -39 -241q-40 -100 -106 -148q-128 -94 -290 -93q-163 1 -293 93q-69 49 -107 148q-39 100 -39 242t39 242t107 151z" />
    <glyph glyph-name="ocircumflex" unicode="&#xf4;" horiz-adv-x="1122" 
d="M565 1362l230 -252h-15l-221 242l-219 -242h-14l227 252h12zM985 468q0 138 -38 236t-103 148q-121 90 -283 90t-281 -90q-67 -49 -106 -147q-39 -99 -39 -237t39 -236t106 -145q124 -89 285 -89t279 89q66 48 103 145q38 98 38 236zM269 861q128 93 295 93
q166 0 289 -93q144 -107 144 -394q0 -141 -39 -241q-40 -100 -106 -148q-128 -94 -290 -93q-163 1 -293 93q-69 49 -107 148q-39 100 -39 242t39 242t107 151z" />
    <glyph glyph-name="otilde" unicode="&#xf5;" horiz-adv-x="1122" 
d="M449 1202q39 0 113 -40t112 -40q70 0 104 82l10 -4q-37 -90 -114 -90q-41 0 -114 40t-111 40q-74 0 -107 -74l-10 4q41 82 117 82zM985 468q0 138 -38 236t-103 148q-121 90 -283 90t-281 -90q-67 -49 -106 -147q-39 -99 -39 -237t39 -236t106 -145q124 -89 285 -89
t279 89q66 48 103 145q38 98 38 236zM269 861q128 93 295 93q166 0 289 -93q144 -107 144 -394q0 -141 -39 -241q-40 -100 -106 -148q-128 -94 -290 -93q-163 1 -293 93q-69 49 -107 148q-39 100 -39 242t39 242t107 151z" />
    <glyph glyph-name="odieresis" unicode="&#xf6;" horiz-adv-x="1122" 
d="M707 1110v156h12v-156h-12zM399 1110v156h13v-156h-13zM985 468q0 138 -38 236t-103 148q-121 90 -283 90t-281 -90q-67 -49 -106 -147q-39 -99 -39 -237t39 -236t106 -145q124 -89 285 -89t279 89q66 48 103 145q38 98 38 236zM269 861q128 93 295 93q166 0 289 -93
q144 -107 144 -394q0 -141 -39 -241q-40 -100 -106 -148q-128 -94 -290 -93q-163 1 -293 93q-69 49 -107 148q-39 100 -39 242t39 242t107 151z" />
    <glyph glyph-name="oslash" unicode="&#xf8;" horiz-adv-x="1122" 
d="M135 483q0 -268 131 -389l576 758q-109 90 -278 90t-288 -89q-141 -102 -141 -370zM985 473q0 252 -135 373l-576 -758q106 -90 277 -90t290 90q67 50 105 148t39 237zM850 79q-130 -95 -301 -94q-172 1 -281 93l-59 -78h-14l63 84q-135 125 -135 389q0 141 39 241
t105 148q128 94 298 93t285 -93l57 78h15l-64 -84q139 -123 139 -397q-1 -273 -147 -380z" />
    <glyph glyph-name="ugrave" unicode="&#xf9;" 
d="M336 1362h18l228 -252h-15zM881 379v561h12v-561q0 -189 -100 -291q-101 -102 -285 -102t-285 101q-100 101 -100 292v561h12v-561q0 -185 97 -283q98 -98 276 -98t276 98t97 283z" />
    <glyph glyph-name="uacute" unicode="&#xfa;" 
d="M664 1362h20l-233 -252h-15zM881 379v561h12v-561q0 -189 -100 -291q-101 -102 -285 -102t-285 101q-100 101 -100 292v561h12v-561q0 -185 97 -283q98 -98 276 -98t276 98t97 283z" />
    <glyph glyph-name="ucircumflex" unicode="&#xfb;" 
d="M514 1362l229 -252h-14l-221 242l-219 -242h-15l228 252h12zM881 379v561h12v-561q0 -189 -100 -291q-101 -102 -285 -102t-285 101q-100 101 -100 292v561h12v-561q0 -185 97 -283q98 -98 276 -98t276 98t97 283z" />
    <glyph glyph-name="udieresis" unicode="&#xfc;" 
d="M655 1110v156h13v-156h-13zM348 1110v156h12v-156h-12zM881 379v561h12v-561q0 -189 -100 -291q-101 -102 -285 -102t-285 101q-100 101 -100 292v561h12v-561q0 -185 97 -283q98 -98 276 -98t276 98t97 283z" />
    <glyph glyph-name="thorn" unicode="&#xfe;" horiz-adv-x="1005" 
d="M471 0q420 0 420 471t-420 471q-184 0 -336 -65v-811q152 -66 336 -66zM471 954q432 0 432 -483t-432 -483q-178 0 -336 65v-424h-12v1680h12v-420q158 65 336 65z" />
    <glyph glyph-name="ydieresis" unicode="&#xff;" horiz-adv-x="970" 
d="M643 1110v156h12v-156h-12zM336 1110v156h12v-156h-12zM205 -385q-45 0 -92 18v13q131 -50 233 28q61 47 109 172l45 119l-404 975h15l395 -958l362 958h15l-416 -1098q-47 -125 -111 -176t-151 -51z" />
    <glyph glyph-name="circumflex" unicode="&#x2c6;" horiz-adv-x="675" 
d="M360 1362l230 -252h-15l-221 242l-219 -242h-14l227 252h12z" />
    <glyph glyph-name="caron" unicode="&#x2c7;" horiz-adv-x="704" 
d="M590 1362l-230 -252h-12l-227 252h14l219 -242l221 242h15z" />
    <glyph glyph-name="dotaccent" unicode="&#x2d9;" horiz-adv-x="299" 
d="M123 1110v156h12v-156h-12z" />
    <glyph glyph-name="ring" unicode="&#x2da;" horiz-adv-x="546" 
d="M266 1397q144 0 144 -153t-144 -152q-143 0 -143 152t143 153zM266 1384q-129 0 -129 -140t129 -140t129 140t-129 140z" />
    <glyph glyph-name="tilde" unicode="&#x2dc;" horiz-adv-x="665" 
d="M233 1202q39 0 114 -40t112 -40q70 0 104 82l10 -4q-37 -90 -114 -90q-41 0 -114 40t-112 40q-73 0 -106 -74l-10 4q41 82 116 82z" />
    <glyph glyph-name="endash" unicode="&#x2013;" horiz-adv-x="1333" 
d="M123 522v10h1077v-10h-1077z" />
    <glyph glyph-name="emdash" unicode="&#x2014;" horiz-adv-x="1910" 
d="M123 522v10h1640v-10h-1640z" />
    <glyph glyph-name="quoteleft" unicode="&#x2018;" horiz-adv-x="360" 
d="M213 913h-12l-99 330h13z" />
    <glyph glyph-name="quoteright" unicode="&#x2019;" horiz-adv-x="354" 
d="M115 913h-13l99 330h12z" />
    <glyph glyph-name="quotesinglbase" unicode="&#x201a;" horiz-adv-x="342" 
d="M201 160h12l-98 -330h-13z" />
    <glyph glyph-name="quotedblleft" unicode="&#x201c;" horiz-adv-x="598" 
d="M213 913h-12l-99 330h13zM465 913h-12l-99 330h13z" />
    <glyph glyph-name="quotedblright" unicode="&#x201d;" horiz-adv-x="587" 
d="M367 913h-13l99 330h12zM115 913h-13l99 330h12z" />
    <glyph glyph-name="quotedblbase" unicode="&#x201e;" horiz-adv-x="585" 
d="M367 -170h-13l99 330h12zM115 -170h-13l99 330h12z" />
    <glyph glyph-name="dagger" unicode="&#x2020;" horiz-adv-x="737" 
d="M358 1335h13v-297h295v-10h-295v-815h-13v815h-295v10h295v297z" />
    <glyph glyph-name="daggerdbl" unicode="&#x2021;" horiz-adv-x="739" 
d="M358 1335h13v-297h295v-10h-295v-508h295v-10h-295v-297h-13v297h-295v10h295v508h-295v10h295v297z" />
    <glyph glyph-name="bullet" unicode="&#x2022;" horiz-adv-x="641" 
d="M207 680q0 55 38 94t93 39t93 -39t38 -94t-38 -94t-93 -39t-93 39t-38 94z" />
    <glyph glyph-name="ellipsis" unicode="&#x2026;" horiz-adv-x="995" 
d="M827 0v160h13v-160h-13zM496 0v160h12v-160h-12zM164 0v160h12v-160h-12z" />
    <glyph glyph-name="perthousand" unicode="&#x2030;" horiz-adv-x="1964" 
d="M1610 8q-174 0 -222 149q-22 65 -22 158q0 177 69 241t175 65q242 -1 242 -307t-242 -306zM1609 20q101 0 166 60t65 240q0 179 -78 239q-61 49 -152 49q-165 0 -211 -139q-20 -61 -21 -154q0 -175 65 -235t166 -60zM367 602q-247 0 -244 307q0 178 68 242q69 63 176 63
q242 0 242 -306t-242 -306zM366 614q102 0 166 60t64 235q0 242 -149 283q-35 10 -81 10q-93 0 -161 -55t-69 -233q-1 -180 64 -240t166 -60zM1098 1223h14l-807 -1223h-14zM1036 8q-246 0 -243 307q0 178 68 242q69 63 175 64q242 -1 242 -307t-242 -306zM805 315
q1 -175 65 -235t165 -60t166 60t65 235q0 242 -149 283q-36 10 -82 10q-162 0 -210 -139q-20 -61 -20 -154z" />
    <glyph glyph-name="guilsinglleft" unicode="&#x2039;" horiz-adv-x="634" 
d="M113 522l397 -393h-16l-398 393l398 400h16z" />
    <glyph glyph-name="guilsinglright" unicode="&#x203a;" horiz-adv-x="567" 
d="M76 129l397 393l-397 400h16l397 -400l-397 -393h-16z" />
    <glyph glyph-name="fraction" unicode="&#x2044;" horiz-adv-x="530" 
d="M-156 -37l840 1299h12l-839 -1299h-13z" />
    <glyph glyph-name="Euro" unicode="&#x20ac;" horiz-adv-x="1179" 
d="M834 772v-10h-627q-10 -58 -10 -142t10 -159h627v-10h-625q21 -135 77 -229q137 -230 468 -230q170 0 348 55v-12q-186 -55 -313 -55t-209 20q-329 80 -383 451h-152v10h150q-23 175 0 301h-150v10h152q50 305 282 414q121 57 274 57t349 -63v-13q-190 64 -361 64
t-318 -89q-79 -48 -136 -142t-78 -228h625z" />
    <glyph glyph-name="trademark" unicode="&#x2122;" horiz-adv-x="1343" 
d="M330 610h-11v604h-258v9h521v-9h-252v-604zM678 610h-10v613h10l262 -355l262 355h10v-613h-10v596l-262 -354l-262 354v-596z" />
    </font>
</defs>
</svg>
